<svg width="67" height="66" viewBox="0 0 67 66" fill="none" xmlns="http://www.w3.org/2000/svg">
<g clip-path="url(#clip0_1_1309)">
<path d="M32.4311 22.1297V3.71429C22.2605 3.71429 14.0157 11.9591 14.0157 22.1297C14.0157 32.3003 22.2605 40.5451 32.4311 40.5451C38.3578 40.5451 43.6281 37.7433 46.9965 33.3942L46.9983 33.3956C49.4102 30.2815 50.8466 26.3736 50.8466 22.1298L32.4311 22.1297Z" fill="#FF4C4C"/>
<path d="M45.0939 22.1297C45.0939 25.1064 44.3869 27.9177 43.1326 30.406C40.5144 35.6004 35.5095 39.3859 29.5579 40.3204C30.2414 40.4276 30.9373 40.4969 31.6433 40.5272C31.6852 40.529 31.7271 40.5305 31.7692 40.532C31.9889 40.5398 32.2094 40.5451 32.4311 40.5451C32.6046 40.5451 32.7773 40.5423 32.9497 40.5375C33.0046 40.536 33.0591 40.5333 33.1139 40.5313C33.2317 40.5271 33.3494 40.5222 33.4667 40.5157C33.5303 40.5122 33.5936 40.5079 33.657 40.5037C33.766 40.4965 33.875 40.4886 33.9836 40.4796C34.0478 40.4742 34.112 40.4685 34.1761 40.4625C34.2864 40.4522 34.3964 40.4406 34.5061 40.4283C34.5655 40.4216 34.6251 40.4152 34.6844 40.408C34.8064 40.393 34.928 40.3765 35.0494 40.3592C35.0949 40.3528 35.1406 40.347 35.1859 40.3402C35.525 40.2892 35.861 40.2292 36.1937 40.1601C36.2245 40.1536 36.2551 40.1465 36.2859 40.14C36.4209 40.1112 36.5554 40.0813 36.6892 40.0496C36.731 40.0397 36.7726 40.0292 36.8143 40.019C36.9391 39.9886 37.0632 39.957 37.187 39.924C37.2279 39.9131 37.2689 39.902 37.3099 39.8908C37.4391 39.8553 37.5677 39.8185 37.6959 39.7803C37.7277 39.7708 37.7597 39.7615 37.7914 39.752C37.9436 39.7057 38.0951 39.6577 38.2455 39.6077C38.2516 39.6056 38.2576 39.6038 38.2638 39.6018C38.7613 39.4356 39.2494 39.2488 39.7269 39.0425C39.7287 39.0417 39.7304 39.0409 39.7322 39.0401C39.8895 38.9721 40.0456 38.9019 40.2005 38.8296C40.2032 38.8283 40.2061 38.8271 40.2088 38.8258C42.8833 37.5768 45.208 35.7038 46.9965 33.3944L46.9983 33.3958C47.2942 33.0136 47.5754 32.6193 47.8412 32.214C47.8487 32.2027 47.8561 32.1913 47.8636 32.1799C47.9234 32.0882 47.9823 31.9958 48.0406 31.9031C48.0514 31.886 48.062 31.8688 48.0728 31.8515C48.1307 31.7586 48.1879 31.6653 48.2441 31.5713C48.2502 31.5611 48.2563 31.5508 48.2623 31.5406C48.5007 31.1405 48.7242 30.7306 48.9322 30.3116C48.9458 30.2844 48.9594 30.2574 48.9728 30.23C49.0153 30.1435 49.0569 30.0565 49.0981 29.9691C49.1144 29.9347 49.1304 29.9003 49.1464 29.8657C49.1859 29.7803 49.2252 29.6946 49.2635 29.6085C49.2786 29.5747 49.2932 29.5408 49.308 29.5069C49.4339 29.2192 49.5527 28.9276 49.6642 28.6324C49.6776 28.5969 49.6914 28.5617 49.7045 28.5263C49.7335 28.4479 49.7615 28.3689 49.7896 28.29C49.8079 28.2386 49.8262 28.1871 49.844 28.1354C49.8699 28.0603 49.8952 27.9849 49.9202 27.9093C49.9389 27.8526 49.9573 27.7959 49.9755 27.7389C49.9988 27.6658 50.022 27.5927 50.0444 27.5194C50.0633 27.4578 50.0814 27.3959 50.0996 27.334C50.1202 27.2636 50.1412 27.1935 50.1611 27.1228C50.183 27.0446 50.2038 26.966 50.2248 26.8875C50.2517 26.7867 50.2778 26.6855 50.303 26.5839C50.3233 26.5023 50.3436 26.4209 50.3628 26.3389C50.3775 26.2762 50.3912 26.2133 50.4053 26.1504C50.4221 26.0749 50.4388 25.9992 50.4546 25.9233C50.4679 25.86 50.4807 25.7966 50.4932 25.7331C50.5086 25.6554 50.5235 25.5774 50.538 25.4993C50.5494 25.4382 50.5606 25.3772 50.5713 25.3159C50.5862 25.2303 50.6003 25.1443 50.6139 25.0583C50.6226 25.004 50.6317 24.9499 50.6399 24.8955C50.6593 24.7661 50.6776 24.6363 50.6944 24.506C50.698 24.4779 50.7012 24.4498 50.7047 24.4217C50.7199 24.2988 50.7341 24.1756 50.747 24.0521C50.7523 24.0014 50.7567 23.9505 50.7615 23.8996C50.7706 23.8056 50.7791 23.7116 50.7866 23.6173C50.7909 23.5616 50.7951 23.5058 50.7989 23.45C50.8054 23.3586 50.8112 23.2669 50.8163 23.1751C50.8194 23.1197 50.8225 23.0644 50.8251 23.0088C50.8297 22.9105 50.8333 22.8119 50.8363 22.7131C50.8377 22.6653 50.8397 22.6175 50.8408 22.5695C50.8442 22.4246 50.8464 22.2795 50.8464 22.1338C50.8464 22.1324 50.8464 22.131 50.8464 22.1297H45.0939Z" fill="#F33939"/>
<path d="M50.8465 22.1297H32.4311L46.9981 33.3955C49.4101 30.2813 50.8465 26.3736 50.8465 22.1297Z" fill="#FFB125"/>
<path d="M45.0939 22.1297C45.0939 25.1064 44.3869 27.9177 43.1328 30.406L46.9983 33.3955C47.2942 33.0133 47.5754 32.619 47.8412 32.2137C47.8487 32.2023 47.8563 32.191 47.8636 32.1795C47.9234 32.0879 47.9823 31.9956 48.0406 31.9028C48.0514 31.8856 48.062 31.8685 48.0728 31.8512C48.1307 31.7582 48.1879 31.6649 48.2441 31.5709C48.2502 31.5608 48.2563 31.5504 48.2623 31.5403C48.5007 31.1401 48.7241 30.7302 48.9322 30.3113C48.9458 30.2841 48.9594 30.257 48.9728 30.2297C49.0153 30.1432 49.057 30.0562 49.0981 29.9688C49.1144 29.9344 49.1304 29.8999 49.1464 29.8654C49.1861 29.7799 49.2252 29.6942 49.2635 29.6081C49.2786 29.5743 49.2932 29.5404 49.308 29.5065C49.4339 29.2188 49.5528 28.9272 49.6643 28.632C49.6777 28.5966 49.6915 28.5614 49.7046 28.5259C49.7337 28.4474 49.7618 28.3685 49.7897 28.2895C49.808 28.2381 49.8263 28.1866 49.8441 28.1349C49.87 28.0598 49.8953 27.9844 49.9203 27.9088C49.939 27.8521 49.9574 27.7954 49.9756 27.7384C49.9989 27.6653 50.0221 27.5923 50.0446 27.5189C50.0634 27.4573 50.0816 27.3954 50.0997 27.3335C50.1205 27.2632 50.1414 27.193 50.1612 27.1223C50.1831 27.0441 50.2039 26.9655 50.2249 26.887C50.2519 26.7862 50.2779 26.685 50.3032 26.5834C50.3234 26.5018 50.3438 26.4204 50.363 26.3384C50.3777 26.2757 50.3913 26.2128 50.4053 26.15C50.4221 26.0745 50.4388 25.9988 50.4548 25.9229C50.468 25.8596 50.4807 25.7962 50.4933 25.7328C50.5088 25.655 50.5236 25.5771 50.5382 25.4989C50.5495 25.4378 50.5607 25.3769 50.5714 25.3155C50.5864 25.2299 50.6004 25.1439 50.6141 25.058C50.6227 25.0037 50.6319 24.9495 50.64 24.8951C50.6595 24.7657 50.6778 24.6359 50.6945 24.5056C50.6981 24.4775 50.7015 24.4494 50.705 24.4213C50.7202 24.2984 50.7344 24.1752 50.7472 24.0517C50.7525 24.0011 50.7569 23.9501 50.7618 23.8992C50.7707 23.8052 50.7793 23.7113 50.7868 23.6169C50.7913 23.5612 50.7953 23.5054 50.7992 23.4496C50.8056 23.3582 50.8114 23.2665 50.8166 23.1748C50.8197 23.1193 50.8228 23.064 50.8254 23.0085C50.83 22.9101 50.8336 22.8115 50.8366 22.7128C50.838 22.6649 50.8399 22.6171 50.8411 22.5692C50.8444 22.4243 50.8466 22.2791 50.8466 22.1335C50.8466 22.132 50.8468 22.1306 50.8468 22.1293H45.0939V22.1297Z" fill="#FF901D"/>
<path d="M6.87967 62.0784V40.6815C6.87967 40.22 7.25376 39.8461 7.71511 39.8461H15.4504C15.9119 39.8461 16.2858 40.2202 16.2858 40.6815V62.0783H6.87967V62.0784Z" fill="#FFB125"/>
<path d="M51.3969 62.0784V36.3215C51.3969 35.86 51.771 35.4861 52.2324 35.4861H59.9676C60.4291 35.4861 60.8031 35.8602 60.8031 36.3215V62.0784H51.3969Z" fill="#61AFF6"/>
<path d="M59.9678 35.486H54.3297C54.791 35.486 55.1651 35.86 55.1651 36.3214V62.0783H60.8032V36.3215C60.8032 35.8602 60.4291 35.486 59.9678 35.486Z" fill="#55A2EF"/>
<path d="M36.5579 62.0784V44.6908C36.5579 44.2293 36.9319 43.8553 37.3933 43.8553H45.1286C45.5901 43.8553 45.964 44.2294 45.964 44.6908V62.0784H36.5579Z" fill="#21D8DE"/>
<path d="M45.1286 43.8553H40.3259V62.0784H45.964V44.6908C45.964 44.2293 45.5901 43.8553 45.1286 43.8553Z" fill="#10C4C4"/>
<path d="M15.4505 39.8461H10.6479V62.0784H16.286V40.6815C16.286 40.2202 15.9119 39.8461 15.4505 39.8461Z" fill="#FF901D"/>
<path d="M21.7188 62.0784V51.3868C21.7188 50.9253 22.0929 50.5513 22.5543 50.5513H30.2894C30.7509 50.5513 31.1249 50.9254 31.1249 51.3868V62.0784H21.7188Z" fill="#FF6D3A"/>
<path d="M30.2894 50.5513H25.4868V62.0783H31.1249V51.3867C31.125 50.9254 30.7509 50.5513 30.2894 50.5513Z" fill="#ED5729"/>
<path d="M53.6299 18.1501C53.0585 8.95228 45.7362 1.58361 36.5579 0.940369V18.1501H53.6299Z" fill="#21D8DE"/>
<path d="M36.5579 0.940369V2.2498C42.9461 4.8528 47.5439 10.939 47.9918 18.1503H53.6299C53.0585 8.95228 45.7362 1.58361 36.5579 0.940369Z" fill="#10C4C4"/>
<path d="M63.4985 65.0598H4.18437C3.74983 65.0598 3.3974 64.7075 3.3974 64.2728V62.4371C3.3974 62.0025 3.7497 61.6501 4.18437 61.6501H63.4985C63.9331 61.6501 64.2855 62.0024 64.2855 62.4371V64.2729C64.2854 64.7075 63.9331 65.0598 63.4985 65.0598Z" fill="#998675"/>
<path d="M63.4985 63.5968H4.18437C3.74983 63.5968 3.3974 63.2445 3.3974 62.8098V64.2729C3.3974 64.7074 3.7497 65.0599 4.18437 65.0599H63.4985C63.9331 65.0599 64.2854 64.7076 64.2854 64.2729V62.8098C64.2854 63.2445 63.9331 63.5968 63.4985 63.5968Z" fill="#736357"/>
<path d="M32.4311 41.4854C38.444 41.4854 44.0089 38.7611 47.708 34.0097C47.7191 33.9968 47.7311 33.9848 47.7417 33.9712C50.388 30.5542 51.7869 26.4595 51.7869 22.1297C51.7869 21.6105 51.366 21.1895 50.8466 21.1895H33.3713V3.71441C33.3713 3.19518 32.9504 2.77417 32.4311 2.77417C21.7583 2.77417 13.0754 11.457 13.0754 22.1298C13.0754 32.8026 21.7583 41.4854 32.4311 41.4854ZM31.4908 4.67953V22.1297C31.4908 22.17 31.4942 22.2096 31.4992 22.2487C31.5004 22.2574 31.5018 22.2661 31.5032 22.2747C31.5096 22.316 31.5182 22.3564 31.5296 22.3958C31.5301 22.3977 31.5305 22.3995 31.531 22.4014C31.5438 22.4437 31.5599 22.4845 31.5784 22.524C31.5816 22.531 31.5849 22.5379 31.5884 22.5448C31.6079 22.5841 31.6291 22.6224 31.6536 22.6583C31.6547 22.6599 31.6561 22.6614 31.6571 22.663C31.6811 22.6977 31.7078 22.7303 31.7361 22.7613C31.7418 22.7675 31.7472 22.7738 31.7532 22.78C31.7832 22.8114 31.8153 22.8405 31.8494 22.8674C31.8518 22.8692 31.8537 22.8716 31.856 22.8734L37.927 27.5685C38.3377 27.8863 38.9283 27.8109 39.2458 27.4C39.5636 26.9892 39.488 26.3987 39.0772 26.0811L35.1837 23.0699H49.8819C49.712 26.3181 48.6614 29.3942 46.8107 32.0619L43.2149 29.281C42.8044 28.9633 42.2136 29.0388 41.896 29.4495C41.5783 29.8603 41.6537 30.4509 42.0646 30.7685L45.657 33.5467C42.329 37.4082 37.5606 39.6049 32.4312 39.6049C22.7953 39.6049 14.956 31.7656 14.956 22.1297C14.9559 12.8091 22.2903 5.16938 31.4908 4.67953Z" fill="black"/>
<path d="M36.5577 19.0905H53.6298C53.8893 19.0905 54.1373 18.9832 54.315 18.7941C54.4927 18.605 54.5844 18.351 54.5683 18.092C53.9696 8.45419 46.2551 0.677404 36.6235 0.00245109C36.3614 -0.0167559 36.1072 0.0748964 35.9166 0.252658C35.7258 0.43042 35.6175 0.679596 35.6175 0.940373V18.1501C35.6176 18.6695 36.0385 19.0905 36.5577 19.0905ZM37.498 1.9782C45.3886 2.99359 51.6512 9.30948 52.6005 17.21H37.498V1.9782Z" fill="black"/>
<path d="M63.4985 60.7099H61.7435V36.3215C61.7435 35.3423 60.947 34.5458 59.9678 34.5458H52.2325C51.2533 34.5458 50.4568 35.3423 50.4568 36.3215V60.7099H46.9044V44.6908C46.9044 43.7117 46.1078 42.9151 45.1286 42.9151H37.3935C36.4143 42.9151 35.6176 43.7116 35.6176 44.6908V60.7099H32.0651V51.3868C32.0651 50.4076 31.2685 49.6111 30.2893 49.6111H22.5543C21.5751 49.6111 20.7786 50.4076 20.7786 51.3868V60.7099H17.2261V40.6815C17.2261 39.7023 16.4296 38.9058 15.4504 38.9058H7.71511C6.73594 38.9058 5.93943 39.7023 5.93943 40.6815V50.4689C5.93943 50.9881 6.36031 51.4091 6.87967 51.4091C7.39903 51.4091 7.81991 50.9881 7.81991 50.4689V40.7863H15.3456V60.7099H7.81991V55.6087C7.81991 55.0895 7.39903 54.6685 6.87967 54.6685C6.36031 54.6685 5.93943 55.0895 5.93943 55.6087V60.7099H4.18437C3.23201 60.7099 2.45715 61.4847 2.45715 62.437V64.2729C2.45715 65.2253 3.23201 66 4.18437 66H63.4984C64.4508 66 65.2256 65.2253 65.2256 64.2729V62.437C65.2256 61.4847 64.4509 60.7099 63.4985 60.7099ZM52.3372 36.4262H59.8629V60.7099H52.3372V36.4262ZM37.498 44.7956H45.0238V60.7099H37.498V44.7956ZM22.6591 51.4915H30.1846V60.7099H22.6591V51.4915ZM63.3453 64.1195H4.33764V62.5904H63.3451L63.3453 64.1195Z" fill="black"/>
</g>
<defs>
<clipPath id="clip0_1_1309">
<rect width="66" height="66" fill="white" transform="translate(0.841309)"/>
</clipPath>
</defs>
</svg>
