<svg width="65" height="66" viewBox="0 0 65 66" fill="none" xmlns="http://www.w3.org/2000/svg">
<path d="M53.5264 32.9468C53.5264 32.9101 53.5264 32.8734 53.5251 32.838C53.5225 32.2938 53.5163 31.7496 53.5086 31.2067C53.4619 27.5151 53.3428 23.8248 53.1518 20.1345C53.1505 20.1332 53.1505 20.1332 53.1518 20.1319C53.1505 20.1307 53.1505 20.1307 53.1518 20.1294C53.1505 20.1281 53.1505 20.1281 53.1518 20.1269C53.1505 20.1256 53.1505 20.1256 53.1518 20.1243C52.9772 16.7048 52.7405 13.279 52.443 9.85952C52.4151 9.53933 52.3444 9.23054 52.2343 8.94073C51.8255 7.84603 50.8814 7.01331 49.7133 6.76526C49.602 6.74121 49.4881 6.72223 49.3729 6.70958C49.1704 6.6868 48.9693 6.66528 48.7667 6.64503C48.2959 6.59188 47.8264 6.54379 47.3569 6.49823C37.0666 5.46048 26.7779 5.23522 16.489 5.82369L15.226 7.10822L3.43488 19.098L2.15668 20.3977C1.48848 33.6304 1.72893 46.8615 2.87805 60.094C3.02232 61.7481 4.3195 63.0643 5.96851 63.2478C12.1671 63.9351 18.3658 64.3261 24.5644 64.4235C24.5733 63.9008 24.1582 63.4692 23.6355 63.4591C17.8127 63.339 11.9039 62.9504 6.07228 62.3037C4.87381 62.1708 3.92718 61.2077 3.82341 60.0131C2.70973 47.1866 2.45535 34.1845 3.06281 21.3507H3.1223C6.40512 21.3507 9.72211 21.2102 12.9935 20.9318C15.1475 20.7495 16.8433 19.0575 17.0256 16.9086C17.3128 13.5347 17.4508 10.1139 17.4419 6.7235C27.2879 6.20842 37.2515 6.44508 47.0987 7.42967C47.3278 7.45118 47.5568 7.47396 47.7859 7.49801C47.5391 14.5496 47.5733 21.6468 47.8922 28.6858C47.9303 29.5451 47.9745 30.4018 48.0214 31.2586C48.0252 31.3307 48.0403 31.4004 48.0594 31.4674H48.0568C48.1238 31.7015 49.3933 36.031 52.5481 39.41C52.4445 46.2261 52.0914 53.1562 51.4965 60.0131C51.3938 61.2076 50.4473 62.1721 49.2475 62.3037C41.9946 63.1086 34.6456 63.5097 27.4105 63.4996H27.4092C26.8866 63.4996 26.4639 63.9211 26.4601 64.4437C34.09 64.4931 41.7213 64.0932 49.3525 63.2478C51.0028 63.0643 52.2987 61.7481 52.443 60.0953C53.053 53.0742 53.4073 46.0528 53.5049 39.0329C53.5035 39.0329 53.5049 39.0316 53.5049 39.0316C53.5125 38.5684 53.5175 38.1039 53.5213 37.6408C53.5226 37.5382 53.5239 37.4357 53.5239 37.3321C53.5265 37.0459 53.5289 36.7588 53.5303 36.4714V36.3677C53.5329 36.0487 53.5329 35.7299 53.5329 35.4109C53.534 34.5894 53.5327 33.7682 53.5264 32.9468ZM45.308 30.1892H21.7169C21.1917 30.1892 20.7665 30.6144 20.7665 31.1384C20.7665 31.6623 21.1917 32.0875 21.7169 32.0875H45.308C45.832 32.0875 46.2571 31.6623 46.2571 31.1384C46.2571 30.6144 45.8319 30.1892 45.308 30.1892ZM45.308 41.9436H21.7169C21.1917 41.9436 20.7665 42.3688 20.7665 42.8928C20.7665 43.418 21.1917 43.8419 21.7169 43.8419H45.308C45.832 43.8419 46.2571 43.418 46.2571 42.8928C46.2571 42.3688 45.8319 41.9436 45.308 41.9436ZM45.308 53.698H21.7169C21.1917 53.698 20.7665 54.1232 20.7665 54.6484C20.7665 55.1725 21.1917 55.5976 21.7169 55.5976H45.308C45.832 55.5976 46.2571 55.1725 46.2571 54.6484C46.2571 54.1232 45.8319 53.698 45.308 53.698ZM44.0171 12.0249H39.6269C39.1017 12.0249 38.6778 12.4501 38.6778 12.974C38.6778 13.498 39.1017 13.9232 39.6269 13.9232H40.8634V20.9242C40.8634 21.4494 41.2886 21.8733 41.8125 21.8733C42.3377 21.8733 42.7617 21.4494 42.7617 20.9242V13.9232H44.0171C44.5412 13.9232 44.9663 13.498 44.9663 12.974C44.9663 12.4501 44.541 12.0249 44.0171 12.0249ZM36.0265 16.1214C35.0431 15.7582 34.1269 15.3634 33.8535 15.2431C33.6156 15.0558 33.6232 14.7913 33.6384 14.6812C33.6599 14.5332 33.7676 14.1687 34.3015 14.008C35.4456 13.6637 36.501 14.4977 36.5314 14.5218C36.9326 14.8546 37.5274 14.8027 37.864 14.4028C38.2005 14.0016 38.1488 13.4018 37.7475 13.0651C37.6742 13.0031 35.9037 11.5427 33.7547 12.1906C32.6739 12.5159 31.9095 13.3663 31.7589 14.4117C31.6184 15.3912 32.0437 16.3328 32.8663 16.8694C32.908 16.8959 32.9523 16.9213 32.9979 16.9415C33.0447 16.9618 34.1381 17.4477 35.3695 17.9021C35.7289 18.0349 36.5515 18.4108 36.4402 19.0347C36.3579 19.4966 35.7997 19.975 35.0076 19.975C34.2052 19.975 33.432 19.651 32.9409 19.1081C32.5878 18.7196 31.988 18.6905 31.5995 19.0423C31.2109 19.3941 31.1818 19.9953 31.5336 20.3838C32.379 21.3165 33.6787 21.8733 35.0076 21.8733C36.6616 21.8733 38.0499 20.8204 38.3094 19.3688C38.5044 18.2779 38.007 16.8516 36.0265 16.1214ZM35.5051 26.6989H21.7169C21.1917 26.6989 20.7665 27.1228 20.7665 27.648C20.7665 28.1719 21.1917 28.5972 21.7169 28.5972H35.5051C36.0303 28.5972 36.4542 28.1719 36.4542 27.648C36.4542 27.1228 36.0303 26.6989 35.5051 26.6989ZM35.5051 38.4532H21.7169C21.1917 38.4532 20.7665 38.8785 20.7665 39.4024C20.7665 39.9265 21.1917 40.3515 21.7169 40.3515H35.5051C36.0303 40.3515 36.4542 39.9265 36.4542 39.4024C36.4542 38.8785 36.0303 38.4532 35.5051 38.4532ZM35.5051 50.2075H21.7169C21.1917 50.2075 20.7665 50.6327 20.7665 51.1566C20.7665 51.6807 21.1917 52.1058 21.7169 52.1058H35.5051C36.0303 52.1058 36.4542 51.6807 36.4542 51.1566C36.4542 50.6328 36.0303 50.2075 35.5051 50.2075ZM29.4077 19.975H27.0373V17.935H29.1621C29.6873 17.935 30.1113 17.5097 30.1113 16.9858C30.1113 16.4619 29.6873 16.0366 29.1621 16.0366H27.0373V13.9966H29.4077C29.9316 13.9966 30.3568 13.5714 30.3568 13.0474C30.3568 12.5222 29.9316 12.097 29.4077 12.097H26.0881C25.5642 12.097 25.139 12.5222 25.139 13.0474V20.9242C25.139 21.4494 25.5642 21.8733 26.0881 21.8733H29.4077C29.9316 21.8733 30.3568 21.4494 30.3568 20.9242C30.3568 20.4002 29.9316 19.975 29.4077 19.975ZM23.2887 12.0249H18.8986C18.3746 12.0249 17.9494 12.4501 17.9494 12.974C17.9494 13.498 18.3746 13.9232 18.8986 13.9232H20.135V20.9242C20.135 21.4494 20.5602 21.8733 21.0842 21.8733C21.6094 21.8733 22.0346 21.4494 22.0346 20.9242V13.9232H23.2887C23.8127 13.9232 24.2379 13.498 24.2379 12.974C24.2379 12.4501 23.8127 12.0249 23.2887 12.0249ZM19.0593 27.0368C18.9732 25.8041 17.9785 24.8094 16.7459 24.7233C15.1829 24.6145 13.5972 24.6145 12.0343 24.7233C10.8016 24.8094 9.8069 25.8041 9.72084 27.0368C9.61201 28.5997 9.61201 30.1854 9.72084 31.7496C9.8069 32.981 10.8016 33.9757 12.0343 34.0618C12.8151 34.1163 13.6023 34.1441 14.3894 34.1441C15.1779 34.1441 15.965 34.1162 16.7459 34.0618C17.9785 33.9757 18.9732 32.981 19.0593 31.7496C19.1681 30.1854 19.1681 28.5997 19.0593 27.0368ZM19.0593 38.7911C18.9732 37.5585 17.9785 36.565 16.7459 36.479C15.1829 36.3689 13.5972 36.3689 12.0343 36.479C10.8016 36.565 9.8069 37.5584 9.72084 38.7911C9.61201 40.3553 9.61201 41.9398 9.72084 43.504C9.8069 44.7367 10.8016 45.7301 12.0343 45.8174C12.8151 45.8719 13.6023 45.8984 14.3894 45.8984C15.1779 45.8984 15.965 45.8719 16.7459 45.8174C17.9785 45.7301 18.9732 44.7367 19.0593 43.504C19.1681 41.9397 19.1681 40.3553 19.0593 38.7911ZM19.0593 50.5468C18.9732 49.3141 17.9785 48.3193 16.7459 48.2334C15.1829 48.1245 13.5972 48.1245 12.033 48.2334C10.8016 48.3194 9.8069 49.3141 9.72084 50.5468C9.61201 52.1097 9.61201 53.6954 9.72084 55.2583C9.8069 56.4909 10.8016 57.4858 12.033 57.5717C12.8151 57.6261 13.6023 57.6538 14.3894 57.6538C15.1766 57.6538 15.9638 57.626 16.7459 57.5717C17.9785 57.4856 18.9732 56.4909 19.0593 55.2583C19.1681 53.6954 19.1681 52.1097 19.0593 50.5468Z" fill="#ECF4FF"/>
<path d="M48.0567 31.4674H48.0592C48.0402 31.4003 48.0251 31.3307 48.0213 31.2586C47.9744 30.4018 47.9301 29.5451 47.892 28.6858C47.5731 21.6468 47.539 14.5496 47.7857 7.49801C47.5567 7.47396 47.3276 7.45118 47.0985 7.42967C37.2512 6.44507 27.2877 6.20842 17.4418 6.72349C17.4506 10.1139 17.3127 13.5347 17.0254 16.9086C16.8432 19.0575 15.1473 20.7495 12.9934 20.9318C9.72195 21.2102 6.40496 21.3507 3.12214 21.3507H3.06278C2.45532 34.1845 2.7097 47.1866 3.82337 60.0131C3.92715 61.2076 4.87378 62.1708 6.07225 62.3037C11.9039 62.9504 17.8127 63.339 23.6355 63.4591C24.1581 63.4692 24.5732 63.9008 24.5644 64.4235C25.1959 64.4349 25.8274 64.4413 26.4602 64.4437C26.464 63.921 26.8867 63.4996 27.4093 63.4996H27.4106C34.6457 63.5097 41.9947 63.1086 49.2476 62.3037C50.4473 62.1721 51.3939 61.2077 51.4966 60.0131C52.0914 53.1562 52.4445 46.2262 52.5482 39.41C49.3931 36.031 48.1238 31.7015 48.0567 31.4674ZM39.6269 12.0249H44.0169C44.541 12.0249 44.9661 12.4501 44.9661 12.974C44.9661 13.498 44.541 13.9232 44.0169 13.9232H42.7615V20.9242C42.7615 21.4494 42.3376 21.8733 41.8124 21.8733C41.2884 21.8733 40.8632 21.4494 40.8632 20.9242V13.9232H39.6268C39.1016 13.9232 38.6776 13.498 38.6776 12.974C38.6777 12.4501 39.1017 12.0249 39.6269 12.0249ZM31.5995 19.0423C31.9881 18.6905 32.5879 18.7196 32.941 19.1081C33.4321 19.651 34.2053 19.975 35.0077 19.975C35.7999 19.975 36.358 19.4966 36.4403 19.0347C36.5516 18.4108 35.729 18.0349 35.3696 17.902C34.1382 17.4477 33.0448 16.9617 32.998 16.9415C32.9524 16.9213 32.9081 16.8959 32.8664 16.8694C32.0438 16.3328 31.6185 15.3912 31.759 14.4117C31.9096 13.3663 32.674 12.5159 33.7548 12.1906C35.9037 11.5427 37.6743 13.0031 37.7476 13.0651C38.1489 13.4018 38.2006 14.0016 37.8641 14.4028C37.5275 14.8027 36.9327 14.8546 36.5315 14.5218C36.5011 14.4977 35.4457 13.6637 34.3016 14.008C33.7675 14.1687 33.66 14.5332 33.6385 14.6812C33.6233 14.7913 33.6157 15.0558 33.8536 15.2431C34.127 15.3634 35.0432 15.7582 36.0265 16.1214C38.0071 16.8516 38.5045 18.2779 38.3096 19.3688C38.0502 20.8204 36.6619 21.8733 35.0078 21.8733C33.679 21.8733 32.3792 21.3165 31.5339 20.3838C31.1819 19.9953 31.211 19.3941 31.5995 19.0423ZM36.4542 27.648C36.4542 28.1719 36.0302 28.5972 35.505 28.5972H21.7169C21.1917 28.5972 20.7665 28.1719 20.7665 27.648C20.7665 27.1228 21.1917 26.6989 21.7169 26.6989H35.505C36.0302 26.6989 36.4542 27.1228 36.4542 27.648ZM25.1389 13.0474C25.1389 12.5222 25.5642 12.097 26.0881 12.097H29.4076C29.9316 12.097 30.3568 12.5222 30.3568 13.0474C30.3568 13.5714 29.9316 13.9966 29.4076 13.9966H27.0373V16.0366H29.1621C29.6873 16.0366 30.1113 16.4619 30.1113 16.9858C30.1113 17.5097 29.6873 17.935 29.1621 17.935H27.0373V19.975H29.4076C29.9316 19.975 30.3568 20.4002 30.3568 20.9242C30.3568 21.4494 29.9316 21.8733 29.4076 21.8733H26.0881C25.5642 21.8733 25.1389 21.4494 25.1389 20.9242V13.0474ZM19.0593 55.2584C18.9732 56.491 17.9785 57.4859 16.7459 57.5718C15.9637 57.6262 15.1766 57.6539 14.3894 57.6539C13.6022 57.6539 12.8151 57.6261 12.033 57.5718C10.8016 57.4858 9.80687 56.491 9.72081 55.2584C9.61198 53.6954 9.61198 52.1097 9.72081 50.5469C9.80687 49.3143 10.8016 48.3194 12.033 48.2335C13.5972 48.1246 15.1829 48.1246 16.7459 48.2335C17.9785 48.3195 18.9732 49.3143 19.0593 50.5469C19.1681 52.1097 19.1681 53.6954 19.0593 55.2584ZM19.0593 43.504C18.9732 44.7367 17.9785 45.7301 16.7459 45.8174C15.965 45.8719 15.1778 45.8984 14.3894 45.8984C13.6022 45.8984 12.8151 45.8719 12.0342 45.8174C10.8016 45.7301 9.80687 44.7367 9.72081 43.504C9.61198 41.9398 9.61198 40.3553 9.72081 38.7911C9.80687 37.5585 10.8016 36.565 12.0342 36.479C13.5972 36.3689 15.1829 36.3689 16.7459 36.479C17.9785 36.565 18.9732 37.5584 19.0593 38.7911C19.1681 40.3553 19.1681 41.9397 19.0593 43.504ZM19.0593 31.7496C18.9732 32.981 17.9785 33.9757 16.7459 34.0618C15.965 34.1163 15.1778 34.144 14.3894 34.144C13.6022 34.144 12.8151 34.1162 12.0342 34.0618C10.8016 33.9757 9.80687 32.981 9.72081 31.7496C9.61198 30.1854 9.61198 28.5997 9.72081 27.0368C9.80687 25.8041 10.8016 24.8094 12.0342 24.7233C13.5972 24.6145 15.1829 24.6145 16.7459 24.7233C17.9785 24.8094 18.9732 25.8041 19.0593 27.0368C19.1681 28.5997 19.1681 30.1854 19.0593 31.7496ZM20.135 20.9242V13.9232H18.8985C18.3746 13.9232 17.9494 13.498 17.9494 12.974C17.9494 12.4501 18.3746 12.0249 18.8985 12.0249H23.2887C23.8127 12.0249 24.2379 12.4501 24.2379 12.974C24.2379 13.498 23.8127 13.9232 23.2887 13.9232H22.0346V20.9242C22.0346 21.4494 21.6093 21.8733 21.0841 21.8733C20.5602 21.8733 20.135 21.4494 20.135 20.9242ZM45.3079 55.5974H21.7169C21.1917 55.5974 20.7665 55.1723 20.7665 54.6483C20.7665 54.1232 21.1917 53.6979 21.7169 53.6979H45.3079C45.832 53.6979 46.2571 54.1231 46.2571 54.6483C46.2571 55.1723 45.8319 55.5974 45.3079 55.5974ZM20.7665 51.1566C20.7665 50.6327 21.1917 50.2075 21.7169 50.2075H35.505C36.0302 50.2075 36.4542 50.6327 36.4542 51.1566C36.4542 51.6807 36.0302 52.1058 35.505 52.1058H21.7169C21.1917 52.1058 20.7665 51.6807 20.7665 51.1566ZM45.3079 43.8419H21.7169C21.1917 43.8419 20.7665 43.418 20.7665 42.8928C20.7665 42.3688 21.1917 41.9436 21.7169 41.9436H45.3079C45.832 41.9436 46.2571 42.3688 46.2571 42.8928C46.2571 43.418 45.8319 43.8419 45.3079 43.8419ZM20.7665 39.4024C20.7665 38.8785 21.1917 38.4532 21.7169 38.4532H35.505C36.0302 38.4532 36.4542 38.8785 36.4542 39.4024C36.4542 39.9264 36.0302 40.3515 35.505 40.3515H21.7169C21.1917 40.3515 20.7665 39.9263 20.7665 39.4024ZM45.3079 32.0875H21.7169C21.1917 32.0875 20.7665 31.6623 20.7665 31.1384C20.7665 30.6144 21.1917 30.1892 21.7169 30.1892H45.3079C45.832 30.1892 46.2571 30.6144 46.2571 31.1384C46.2571 31.6623 45.8319 32.0875 45.3079 32.0875Z" fill="#ECF4FF"/>
<path d="M12.9131 19.9864C9.32767 20.2912 5.742 20.4278 2.15659 20.3976C2.37983 15.9459 12.0385 6.07681 16.4888 5.8237C16.5274 9.49251 16.3914 13.1604 16.0796 16.8289C15.9367 18.5107 14.5951 19.8434 12.9131 19.9864Z" fill="#DDEAFB"/>
<path d="M63.4926 31.2067C63.4926 31.208 63.4913 31.208 63.4913 31.2092C63.4673 31.2928 62.675 34.0111 60.8108 36.7523C60.7411 36.8548 60.669 36.9586 60.597 37.061C60.5236 37.1636 60.4489 37.266 60.3729 37.3685C60.2969 37.4711 60.2197 37.5735 60.14 37.6749C60.0615 37.7774 59.9806 37.8785 59.8983 37.9785C59.8162 38.0797 59.7325 38.1797 59.6464 38.2797C59.4681 38.4885 59.282 38.6948 59.0871 38.8973C59.0124 38.9771 58.9339 39.0569 58.8555 39.1353L58.8213 39.1695C58.7783 39.2125 58.7353 39.2543 58.691 39.2961C58.4873 39.4947 58.2746 39.6871 58.0545 39.8731C57.9848 39.9328 57.914 39.991 57.843 40.0492C57.6266 40.2251 57.4039 40.3934 57.1723 40.5554C57.0989 40.6073 57.0242 40.6579 56.9496 40.7073C56.7939 40.8109 56.6357 40.9109 56.475 41.0058C56.4383 41.0273 56.4029 41.0488 56.3662 41.0703C56.3219 41.0971 56.2763 41.1222 56.2309 41.1475C56.1853 41.1222 56.1396 41.0971 56.0955 41.0703C56.0588 41.0488 56.0233 41.0273 55.9866 41.0058C55.9056 40.959 55.8259 40.9096 55.7474 40.859C55.6702 40.8109 55.593 40.7616 55.5171 40.7109C55.5158 40.7109 55.5146 40.7097 55.512 40.7073C55.4374 40.6578 55.3627 40.6073 55.2893 40.5554C55.0577 40.3934 54.835 40.2251 54.6186 40.0492C54.5476 39.991 54.4768 39.9328 54.4072 39.8731C54.3667 39.8402 54.3275 39.8062 54.2883 39.7719C54.182 39.6796 54.0769 39.5847 53.9745 39.4898C53.9315 39.4493 53.8883 39.4087 53.8453 39.3683C53.82 39.3443 53.7948 39.3215 53.7707 39.2962C53.7417 39.2696 53.7137 39.2418 53.6859 39.2139C53.6593 39.1887 53.6327 39.1622 53.6061 39.1356C53.5718 39.1013 53.5378 39.0672 53.5049 39.0329C53.5035 39.0329 53.5049 39.0317 53.5049 39.0317C53.4581 38.9861 53.4125 38.9393 53.3682 38.8923C53.3453 38.8684 53.3227 38.8443 53.3011 38.8203C53.2492 38.7672 53.1986 38.7126 53.1507 38.6583C53.1442 38.652 53.1379 38.6457 53.1328 38.6394C53.105 38.6104 53.0784 38.5799 53.0518 38.5495C53.0328 38.5307 53.0164 38.5115 53.0012 38.4913C52.9582 38.4459 52.9177 38.4002 52.8784 38.3534C52.8721 38.347 52.8671 38.3407 52.862 38.3345C52.8226 38.2901 52.7835 38.2446 52.7468 38.1991C52.7125 38.1597 52.6798 38.1219 52.6493 38.0827C52.6328 38.0648 52.619 38.0472 52.6062 38.0295C52.5733 37.9901 52.5417 37.9523 52.5113 37.9131C52.505 37.9066 52.4999 37.9017 52.4961 37.8952C52.4582 37.8498 52.4228 37.8041 52.3874 37.7585C52.3797 37.751 52.3735 37.7421 52.3684 37.7334C52.352 37.7144 52.3368 37.694 52.3216 37.6751C52.3102 37.6612 52.3001 37.6486 52.2914 37.6347C52.2419 37.5726 52.1938 37.5106 52.1482 37.4473C52.118 37.4081 52.0876 37.3676 52.0598 37.3285C52.0103 37.2626 51.9611 37.1956 51.9142 37.1286C51.9117 37.1259 51.9104 37.1248 51.9092 37.1222C51.8725 37.0716 51.837 37.0209 51.8029 36.9716C51.751 36.8982 51.7002 36.8262 51.651 36.7528C51.5322 36.578 51.4181 36.4048 51.3093 36.2314C51.2639 36.1604 51.2194 36.0897 51.1764 36.0201C51.06 35.8315 50.9486 35.6441 50.8436 35.4593C50.7942 35.3758 50.7474 35.291 50.7006 35.2076C50.5272 34.8949 50.3677 34.5913 50.2222 34.2977C50.207 34.2673 50.1918 34.2356 50.1768 34.2053C50.0387 33.9256 49.9148 33.6574 49.802 33.4043C49.7768 33.3474 49.7515 33.2916 49.7288 33.2373C49.6843 33.1346 49.6414 33.0335 49.5995 32.9361C49.578 32.8829 49.5553 32.8298 49.535 32.7779C49.3502 32.3261 49.2136 31.9489 49.1199 31.6768C49.1148 31.6591 49.1085 31.6427 49.1035 31.6275C49.0756 31.544 49.0516 31.4718 49.0326 31.4123C49.0275 31.3946 49.0225 31.3782 49.0174 31.363C49.0136 31.3516 49.0097 31.3415 49.0073 31.3314C49.0046 31.3225 49.0022 31.3149 48.9995 31.3073C48.9945 31.2921 48.9908 31.2795 48.9869 31.2681C48.9842 31.2567 48.9806 31.2466 48.978 31.239C48.9744 31.2238 48.9717 31.2149 48.9704 31.2099C48.9704 31.2086 48.9692 31.2086 48.9692 31.2073H63.4926V31.2067Z" fill="#FFDDCE"/>
<path d="M56.2306 41.1477C50.9663 38.1986 48.9686 31.2071 48.9686 31.2071H53.2314C53.4875 32.9413 54.3388 37.8365 56.2306 41.1477Z" fill="#FFCBBE"/>
<path d="M63.4926 31.2067C63.4926 31.208 63.4913 31.208 63.4913 31.2092C62.6775 32.8266 61.7283 34.173 60.678 35.178C60.5135 35.3349 60.3452 35.4855 60.1756 35.6247C59.8187 35.9196 59.453 36.1764 59.0784 36.3904C58.386 36.7865 57.6648 37.0421 56.9219 37.1396C56.6941 37.17 56.4638 37.1852 56.2309 37.1852C55.9993 37.1852 55.7677 37.17 55.5399 37.1396C55.183 37.0928 54.8311 37.0092 54.4843 36.8903H54.4831C54.1603 36.7802 53.8427 36.6408 53.5302 36.4713C53.4807 36.4447 53.4327 36.4181 53.3834 36.3891C53.0088 36.1752 52.643 35.9196 52.2875 35.626C52.1165 35.4843 51.9483 35.3349 51.7825 35.1767C50.7334 34.1719 49.7842 32.8266 48.9705 31.2092C48.9705 31.208 48.9692 31.208 48.9692 31.2067C48.5768 30.4271 48.2162 29.5843 47.8921 28.6858C47.5732 21.6468 47.539 14.5496 47.7858 7.498C47.5567 7.47396 47.3277 7.45118 47.0986 7.42967C47.1796 7.11454 47.2657 6.80322 47.3568 6.49822C47.4479 6.18563 47.5439 5.87811 47.6441 5.57564C47.7238 5.33266 47.8073 5.09347 47.8935 4.85808C48.2175 3.96207 48.5768 3.12049 48.9692 2.34091C50.4056 2.02579 51.8433 1.80558 53.2784 1.67776C53.1695 7.82705 53.1265 13.9751 53.1518 20.1243C53.1506 20.1256 53.1506 20.1256 53.1518 20.1269C53.1506 20.1281 53.1506 20.1281 53.1518 20.1294C53.1506 20.1307 53.1506 20.1307 53.1518 20.1319C53.1506 20.1332 53.1506 20.1332 53.1518 20.1345C53.3429 23.8248 53.4619 27.5151 53.5086 31.2067H63.4926Z" fill="#D57080"/>
<path d="M58.2481 30.9814C56.9041 31.065 55.5576 31.065 54.2135 30.9814C54.058 21.5493 54.058 11.9995 54.2135 2.56615C55.5576 2.48263 56.9041 2.48263 58.2481 2.56615C58.405 11.9995 58.405 21.5493 58.2481 30.9814Z" fill="#D57080"/>
<path d="M63.8153 9.17989V11.0326C63.299 11.0491 62.8889 11.4781 62.899 11.997C63.0118 18.1045 62.9054 24.3006 62.5839 30.4259C61.7741 30.5853 60.9628 30.7119 60.1491 30.8106C60.3023 21.4898 60.3023 12.059 60.1491 2.737C60.9629 2.83571 61.7741 2.96353 62.5839 3.12172C62.6725 4.81755 62.7472 6.54376 62.8029 8.2649C62.8206 8.78883 63.2547 9.20014 63.7837 9.18242C63.7938 9.18242 63.8052 9.18115 63.8153 9.17989Z" fill="#D57080"/>
<path d="M53.272 31.4712C53.2733 31.6028 53.2757 31.7357 53.2784 31.8673C51.8432 31.7408 50.4056 31.5206 48.9692 31.2067C48.5147 23.0199 48.4464 14.8318 48.7666 6.64503C48.8223 5.21117 48.8893 3.77604 48.9692 2.34091C50.4056 2.02579 51.8432 1.80558 53.2784 1.67776C53.1695 7.82705 53.1265 13.9751 53.1518 20.1243C53.1506 20.1256 53.1506 20.1256 53.1518 20.1269C53.1506 20.1281 53.1506 20.1281 53.1518 20.1294C53.1506 20.1307 53.1506 20.1307 53.1518 20.1319C53.1506 20.1332 53.1506 20.1332 53.1518 20.1345C53.1656 23.8261 53.2037 27.5164 53.267 31.2067C53.2682 31.294 53.2695 31.3814 53.272 31.4687C53.2708 31.4699 53.2708 31.4699 53.272 31.4712Z" fill="#CB5769"/>
<path d="M60.8111 36.7518C59.6921 38.3974 58.1882 40.0515 56.2307 41.1476C54.2733 40.0516 52.7694 38.3974 51.6505 36.7518C52.4718 36.5301 53.3631 36.367 54.3033 36.2726C54.9258 36.2097 55.5697 36.1768 56.2307 36.1768C57.8862 36.1766 59.4446 36.3841 60.8111 36.7518Z" fill="#365E7D"/>
<path d="M56.2306 41.1477C54.2732 40.0517 52.7692 38.3975 51.6503 36.7519C52.4717 36.5302 53.363 36.3671 54.3032 36.2727C54.771 37.9352 55.4006 39.6938 56.2306 41.1477Z" fill="#2B4D66"/>
<path d="M54.4844 36.8903H54.4831C54.4844 36.8939 54.4858 36.8966 54.4869 36.9004C54.492 36.9181 54.4971 36.9357 54.5021 36.9536C54.5072 36.97 54.5123 36.9877 54.5173 37.0054C54.5376 37.0713 54.5591 37.1371 54.5792 37.2029H54.5806C54.897 37.1725 55.217 37.151 55.5399 37.1396C55.183 37.0928 54.8312 37.0091 54.4844 36.8903ZM54.4844 36.8903H54.4831C54.4844 36.8939 54.4858 36.8966 54.4869 36.9004C54.492 36.9181 54.4971 36.9357 54.5021 36.9536C54.5072 36.97 54.5123 36.9877 54.5173 37.0054C54.5376 37.0713 54.5591 37.1371 54.5792 37.2029H54.5806C54.897 37.1725 55.217 37.151 55.5399 37.1396C55.183 37.0928 54.8312 37.0091 54.4844 36.8903ZM64.4405 2.28903C64.4164 1.86254 64.1113 1.50439 63.6949 1.41454C63.4304 1.35632 63.1648 1.3019 62.9002 1.25128C63.5266 2.3156 64.0874 3.52673 64.5694 4.85808C64.5303 3.99498 64.4873 3.13694 64.4405 2.28903V2.28903ZM54.4844 36.8903H54.4831C54.4844 36.8939 54.4858 36.8966 54.4869 36.9004C54.492 36.9181 54.4971 36.9357 54.5021 36.9536C54.5072 36.97 54.5123 36.9877 54.5173 37.0054C54.5376 37.0713 54.5591 37.1371 54.5792 37.2029H54.5806C54.897 37.1725 55.217 37.151 55.5399 37.1396C55.183 37.0928 54.8312 37.0091 54.4844 36.8903ZM64.5708 28.687C64.2457 29.5843 63.8849 30.4271 63.4926 31.2067H53.5087C53.462 27.5151 53.3429 23.8248 53.1519 20.1345C53.1507 20.1332 53.1507 20.1332 53.1519 20.1319C53.1507 20.1307 53.1507 20.1307 53.1519 20.1294C53.1507 20.1281 53.1507 20.1281 53.1519 20.1269C53.1507 20.1256 53.1507 20.1256 53.1519 20.1243C53.1266 13.9751 53.1696 7.82705 53.2785 1.67777C51.8433 1.80559 50.4057 2.02579 48.9693 2.34092C49.1591 1.96252 49.3577 1.59931 49.5627 1.25128C49.2969 1.3019 49.0312 1.35632 48.7667 1.41454C48.3491 1.50439 48.0441 1.86254 48.0213 2.28903C47.9745 3.14454 47.9314 4.00004 47.8935 4.85808C47.8819 5.1036 47.8705 5.35038 47.8604 5.59716C47.7884 5.58957 47.7162 5.58197 47.644 5.57565C37.283 4.52145 26.7891 4.28353 16.4357 4.87454V4.8758H16.4344C15.1992 4.94667 13.6654 5.59083 11.8747 6.7931C10.3168 7.83844 8.65259 9.24826 7.06053 10.8707C4.32822 13.6549 1.36179 17.5971 1.20992 20.3294C1.20992 20.3357 1.20865 20.342 1.20865 20.3496C0.540574 33.5632 0.784824 46.9627 1.93267 60.1776C2.11491 62.2708 3.76771 63.959 5.86345 64.1906C11.7508 64.8436 17.7178 65.2359 23.5963 65.3562C23.6026 65.3574 23.6089 65.3574 23.6165 65.3574C24.1316 65.3574 24.5543 64.9449 24.5644 64.4273V64.4235C24.5733 63.9008 24.1582 63.4692 23.6355 63.4591C17.8127 63.339 11.9039 62.9504 6.07227 62.3037C4.8738 62.1708 3.92717 61.2077 3.8234 60.013C2.70972 47.1866 2.45534 34.1845 3.0628 21.3507H3.12228C6.40511 21.3507 9.7221 21.2102 12.9935 20.9318C15.1475 20.7495 16.8433 19.0575 17.0256 16.9086C17.3128 13.5347 17.4508 10.1139 17.4419 6.7235C27.2879 6.20842 37.2515 6.44508 47.0987 7.42967C47.3278 7.45118 47.5568 7.47396 47.7859 7.49801C47.5391 14.5496 47.5733 21.6468 47.8922 28.6858C47.9303 29.5451 47.9744 30.4018 48.0214 31.2586C48.0252 31.3307 48.0403 31.4003 48.0594 31.4674H48.0568C48.1238 31.7015 49.3933 36.031 52.5481 39.41C52.4445 46.2261 52.0914 53.1562 51.4965 60.013C51.3938 61.2076 50.4473 62.1721 49.2475 62.3037C41.9946 63.1086 34.6456 63.5097 27.4105 63.4996H27.4092C26.8866 63.4996 26.4639 63.921 26.4601 64.4437V64.4475C26.4588 64.9714 26.884 65.3967 27.408 65.3979H27.7066C34.9177 65.3979 42.2338 64.9917 49.4563 64.1906C51.5533 63.959 53.2074 62.2708 53.3883 60.1763C53.9388 53.8296 54.2818 47.4209 54.4159 41.0944C54.841 41.4135 55.2917 41.7095 55.7675 41.9765C55.9118 42.0562 56.0712 42.0967 56.2307 42.0967C56.3915 42.0967 56.5508 42.0562 56.6952 41.9765C62.237 38.8722 64.3201 31.7686 64.4062 31.4674L64.4024 31.4662C64.4213 31.3991 64.4367 31.3307 64.4405 31.2586C64.4873 30.4031 64.5316 29.5463 64.5708 28.687V28.687ZM53.5251 32.838C54.4261 32.9089 55.3298 32.9456 56.2309 32.9456C58.1671 32.9456 60.1022 32.7811 62.0295 32.4545C61.7208 33.2037 61.2752 34.1643 60.6779 35.178C60.5829 35.34 60.483 35.5045 60.3792 35.669C60.3109 35.6538 60.2439 35.6387 60.1756 35.6247C58.9289 35.3615 57.6078 35.2272 56.2321 35.2272C55.4994 35.2272 54.769 35.2677 54.0567 35.3462C53.8807 35.3652 53.7061 35.3867 53.5327 35.4107C53.1088 35.4689 52.6924 35.5411 52.2874 35.6259C52.2191 35.6398 52.1507 35.655 52.0824 35.6702C51.9786 35.5044 51.8787 35.34 51.7825 35.1767C51.1864 34.163 50.7422 33.2037 50.4321 32.4545C51.4547 32.6279 52.4798 32.7557 53.5061 32.8367C53.5125 32.838 53.5188 32.838 53.5251 32.838V32.838ZM55.4019 39.4581C54.7033 38.9139 54.0769 38.2938 53.5215 37.6407C53.4443 37.5509 53.3683 37.4598 53.2937 37.3674C53.3696 37.3547 53.4468 37.3421 53.5239 37.3321C53.8694 37.2775 54.2226 37.2345 54.5793 37.2029H54.5807C54.8971 37.1725 55.2172 37.151 55.54 37.1396C55.7702 37.1307 56.0007 37.1257 56.2323 37.1257C56.4626 37.1257 56.6929 37.1295 56.922 37.1396C57.6889 37.1674 58.4443 37.2459 59.1683 37.3674C58.3533 38.3711 57.3801 39.3138 56.231 40.0429C55.9436 39.8605 55.6677 39.6644 55.4019 39.4581V39.4581ZM49.8778 3.12176C50.6877 2.96356 51.499 2.83574 52.3127 2.73703C52.2784 4.79987 52.2531 6.86903 52.2343 8.94073C52.1672 16.229 52.1938 23.5527 52.3127 30.8106C51.4989 30.7132 50.6877 30.5853 49.8778 30.4259C49.4653 22.5757 49.4108 14.6382 49.7133 6.76526C49.7589 5.54907 49.8146 4.33415 49.8778 3.12176V3.12176ZM15.5461 6.98799C15.5474 10.2379 15.4082 13.5157 15.1336 16.7479C15.0298 17.9717 14.0617 18.936 12.8328 19.041C9.67654 19.3093 6.47724 19.4473 3.30832 19.4523C3.34629 19.3372 3.38805 19.2195 3.43487 19.098C4.15497 17.2427 5.99254 14.6699 8.41479 12.2008C10.8472 9.72284 13.3896 7.8435 15.226 7.10822C15.3348 7.06266 15.4424 7.02343 15.5461 6.98799V6.98799ZM54.4844 36.8903H54.4831C54.4844 36.8939 54.4858 36.8966 54.4869 36.9004C54.492 36.9181 54.4971 36.9357 54.5021 36.9536C54.5072 36.97 54.5123 36.9877 54.5173 37.0054C54.5376 37.0713 54.5591 37.1371 54.5792 37.2029H54.5806C54.897 37.1725 55.217 37.151 55.5399 37.1396C55.183 37.0928 54.8312 37.0091 54.4844 36.8903ZM54.4844 36.8903H54.4831C54.4844 36.8939 54.4858 36.8966 54.4869 36.9004C54.492 36.9181 54.4971 36.9357 54.5021 36.9536C54.5072 36.97 54.5123 36.9877 54.5173 37.0054C54.5376 37.0713 54.5591 37.1371 54.5792 37.2029H54.5806C54.897 37.1725 55.217 37.151 55.5399 37.1396C55.183 37.0928 54.8312 37.0091 54.4844 36.8903ZM54.4844 36.8903H54.4831C54.4844 36.8939 54.4858 36.8966 54.4869 36.9004C54.492 36.9181 54.4971 36.9357 54.5021 36.9536C54.5072 36.97 54.5123 36.9877 54.5173 37.0054C54.5376 37.0713 54.5591 37.1371 54.5792 37.2029H54.5806C54.897 37.1725 55.217 37.151 55.5399 37.1396C55.183 37.0928 54.8312 37.0091 54.4844 36.8903Z" fill="black"/>
<path d="M64.7973 11.9628C64.7923 11.6946 64.6758 11.4554 64.4949 11.2883C64.3202 11.1238 64.0861 11.0263 63.8305 11.0314C63.8254 11.0314 63.8203 11.0314 63.8153 11.0327C63.2989 11.0491 62.8889 11.4781 62.899 11.997C63.0118 18.1045 62.9053 24.3006 62.5839 30.4259C61.7741 30.5853 60.9627 30.7119 60.1491 30.8106C60.3023 21.4899 60.3023 12.059 60.1491 2.73702C60.9629 2.83574 61.7741 2.96356 62.5839 3.12175C62.6725 4.81758 62.7472 6.54378 62.8028 8.26492C62.8206 8.78886 63.2546 9.20016 63.7836 9.18244C63.7938 9.18244 63.8052 9.18118 63.8153 9.17991C63.9988 9.16852 64.1671 9.10525 64.3063 9.004C64.5544 8.82556 64.7113 8.53069 64.7012 8.20291C64.6645 7.0867 64.6202 5.96796 64.5695 4.85808C64.0874 3.52672 63.5267 2.3156 62.9003 1.25128C58.4709 0.385643 53.9921 0.385643 49.5627 1.25128C49.3577 1.5993 49.1591 1.96251 48.9693 2.34091C50.4057 2.02579 51.8433 1.80558 53.2785 1.67776C53.1696 7.82705 53.1266 13.9751 53.1519 20.1243C53.1507 20.1256 53.1507 20.1256 53.1519 20.1269C53.1507 20.1281 53.1507 20.1281 53.1519 20.1294C53.1507 20.1307 53.1507 20.1307 53.1519 20.1319C53.1507 20.1332 53.1507 20.1332 53.1519 20.1345C53.343 23.8248 53.462 27.5151 53.5087 31.2067H63.4926C63.8849 30.4271 64.2456 29.5843 64.5708 28.687C64.8226 23.1186 64.8998 17.5047 64.7973 11.9628V11.9628ZM58.2481 30.9815C56.9041 31.065 55.5576 31.065 54.2136 30.9815C54.0581 21.5493 54.0581 11.9995 54.2136 2.56618C55.5576 2.48265 56.9041 2.48265 58.2481 2.56618C58.4051 11.9995 58.4051 21.5493 58.2481 30.9815Z" fill="black"/>
<path d="M19.0592 27.0368C18.9732 25.8041 17.9785 24.8094 16.7458 24.7234C15.1829 24.6145 13.5972 24.6145 12.0342 24.7234C10.8016 24.8094 9.80684 25.8041 9.72079 27.0368C9.61195 28.5997 9.61195 30.1854 9.72079 31.7497C9.80684 32.981 10.8016 33.9757 12.0342 34.0618C12.815 34.1163 13.6022 34.1441 14.3894 34.1441C15.1778 34.1441 15.965 34.1162 16.7458 34.0618C17.9785 33.9757 18.9732 32.981 19.0592 31.7497C19.1681 30.1854 19.1681 28.5997 19.0592 27.0368V27.0368ZM17.1647 31.6168C17.1445 31.9104 16.9078 32.1483 16.6142 32.1685C15.1386 32.2711 13.6414 32.2711 12.1658 32.1685C11.8722 32.1483 11.6356 31.9104 11.614 31.6168C11.5115 30.1411 11.5115 28.6453 11.614 27.1696C11.6356 26.8748 11.8722 26.6381 12.1658 26.6179C12.9036 26.566 13.6465 26.5407 14.3894 26.5407C15.1335 26.5407 15.8764 26.566 16.6142 26.6179C16.9078 26.6381 17.1445 26.8748 17.1647 27.1684C17.2685 28.6453 17.2685 30.1411 17.1647 31.6168Z" fill="black"/>
<path d="M46.257 31.1384C46.257 31.6623 45.832 32.0875 45.3079 32.0875H21.7169C21.1917 32.0875 20.7664 31.6623 20.7664 31.1384C20.7664 30.6144 21.1917 30.1892 21.7169 30.1892H45.3079C45.8318 30.1892 46.257 30.6144 46.257 31.1384Z" fill="black"/>
<path d="M36.4541 27.648C36.4541 28.1719 36.0302 28.5972 35.505 28.5972H21.7169C21.1917 28.5972 20.7664 28.1719 20.7664 27.648C20.7664 27.1228 21.1917 26.6989 21.7169 26.6989H35.505C36.0302 26.6989 36.4541 27.1228 36.4541 27.648Z" fill="black"/>
<path d="M19.0592 38.7911C18.9732 37.5585 17.9785 36.565 16.7458 36.479C15.1829 36.3689 13.5972 36.3689 12.0342 36.479C10.8016 36.565 9.80684 37.5584 9.72079 38.7911C9.61195 40.3553 9.61195 41.9398 9.72079 43.504C9.80684 44.7366 10.8016 45.7301 12.0342 45.8174C12.815 45.8718 13.6022 45.8984 14.3894 45.8984C15.1778 45.8984 15.965 45.8718 16.7458 45.8174C17.9785 45.7301 18.9732 44.7366 19.0592 43.504C19.1681 41.9397 19.1681 40.3553 19.0592 38.7911ZM17.1647 43.3711C17.1445 43.6646 16.9078 43.9027 16.6142 43.9228C15.1386 44.0254 13.6414 44.0254 12.1658 43.9228C11.8722 43.9027 11.6356 43.6646 11.614 43.3711C11.5115 41.8955 11.5115 40.3996 11.614 38.9239C11.6356 38.6304 11.8722 38.3925 12.1658 38.3722C12.9036 38.3203 13.6465 38.295 14.3894 38.295C15.1323 38.295 15.8764 38.3203 16.6142 38.3722C16.9078 38.3925 17.1445 38.6304 17.1647 38.9239C17.2685 40.3995 17.2685 41.8955 17.1647 43.3711Z" fill="black"/>
<path d="M46.257 42.8928C46.257 43.418 45.832 43.8419 45.3079 43.8419H21.7169C21.1917 43.8419 20.7664 43.418 20.7664 42.8928C20.7664 42.3688 21.1917 41.9436 21.7169 41.9436H45.3079C45.8318 41.9436 46.257 42.3688 46.257 42.8928Z" fill="black"/>
<path d="M36.4541 39.4024C36.4541 39.9264 36.0302 40.3515 35.505 40.3515H21.7169C21.1917 40.3515 20.7664 39.9264 20.7664 39.4024C20.7664 38.8784 21.1917 38.4532 21.7169 38.4532H35.505C36.0302 38.4532 36.4541 38.8784 36.4541 39.4024Z" fill="black"/>
<path d="M19.0592 50.5467C18.9732 49.3141 17.9785 48.3193 16.7458 48.2333C15.1829 48.1245 13.5972 48.1245 12.0329 48.2333C10.8016 48.3194 9.80684 49.3141 9.72079 50.5467C9.61195 52.1097 9.61195 53.6954 9.72079 55.2582C9.80684 56.4909 10.8016 57.4857 12.0329 57.5717C12.815 57.6261 13.6022 57.6538 14.3894 57.6538C15.1765 57.6538 15.9637 57.6259 16.7458 57.5717C17.9785 57.4856 18.9732 56.4909 19.0592 55.2582C19.1681 53.6954 19.1681 52.1097 19.0592 50.5467V50.5467ZM17.1647 55.1255C17.1445 55.4204 16.9078 55.657 16.6142 55.6773C15.1386 55.7809 13.6414 55.7809 12.1658 55.6773C11.8722 55.657 11.6356 55.4204 11.614 55.1255C11.5115 53.6499 11.5115 52.154 11.614 50.6784C11.6356 50.3848 11.8722 50.1481 12.1658 50.1266C12.9036 50.076 13.6465 50.0494 14.3894 50.0494C15.1323 50.0494 15.8764 50.076 16.6142 50.1266C16.9078 50.1481 17.1445 50.3848 17.1647 50.6784C17.2685 52.1539 17.2685 53.651 17.1647 55.1255Z" fill="black"/>
<path d="M46.257 54.6483C46.257 55.1723 45.832 55.5974 45.3079 55.5974H21.7169C21.1917 55.5974 20.7664 55.1723 20.7664 54.6483C20.7664 54.1232 21.1917 53.6978 21.7169 53.6978H45.3079C45.8318 53.698 46.257 54.1232 46.257 54.6483Z" fill="black"/>
<path d="M36.4541 51.1566C36.4541 51.6807 36.0302 52.1058 35.505 52.1058H21.7169C21.1917 52.1058 20.7664 51.6807 20.7664 51.1566C20.7664 50.6327 21.1917 50.2075 21.7169 50.2075H35.505C36.0302 50.2075 36.4541 50.6328 36.4541 51.1566Z" fill="black"/>
<path d="M30.3568 20.9242C30.3568 21.4494 29.9316 21.8733 29.4076 21.8733H26.0881C25.5642 21.8733 25.1389 21.4494 25.1389 20.9242V13.0474C25.1389 12.5222 25.5642 12.097 26.0881 12.097H29.4076C29.9316 12.097 30.3568 12.5222 30.3568 13.0474C30.3568 13.5713 29.9316 13.9966 29.4076 13.9966H27.0373V16.0366H29.1621C29.6873 16.0366 30.1113 16.4618 30.1113 16.9858C30.1113 17.5097 29.6873 17.9349 29.1621 17.9349H27.0373V19.975H29.4076C29.9316 19.975 30.3568 20.4002 30.3568 20.9242Z" fill="black"/>
<path d="M38.3095 19.3688C38.05 20.8204 36.6617 21.8733 35.0077 21.8733C33.6788 21.8733 32.3791 21.3165 31.5337 20.3838C31.1819 19.9953 31.211 19.3941 31.5995 19.0423C31.9881 18.6905 32.5879 18.7196 32.941 19.1081C33.4321 19.651 34.2053 19.975 35.0077 19.975C35.7999 19.975 36.358 19.4966 36.4403 19.0347C36.5516 18.4108 35.729 18.0349 35.3696 17.9021C34.1382 17.4477 33.0448 16.9618 32.998 16.9415C32.9524 16.9213 32.9081 16.8959 32.8664 16.8694C32.0438 16.3328 31.6185 15.3912 31.759 14.4117C31.9096 13.3663 32.674 12.5159 33.7548 12.1907C35.9037 11.5427 37.6743 13.0031 37.7476 13.0651C38.1489 13.4018 38.2006 14.0016 37.8641 14.4028C37.5275 14.8027 36.9327 14.8546 36.5315 14.5218C36.5011 14.4977 35.4457 13.6637 34.3016 14.008C33.7675 14.1687 33.66 14.5332 33.6385 14.6812C33.6233 14.7913 33.6157 15.0558 33.8536 15.2431C34.127 15.3634 35.0432 15.7582 36.0265 16.1214C38.007 16.8517 38.5044 18.2779 38.3095 19.3688V19.3688Z" fill="black"/>
<path d="M24.2379 12.974C24.2379 13.4979 23.8127 13.9232 23.2888 13.9232H22.0346V20.9242C22.0346 21.4494 21.6094 21.8733 21.0842 21.8733C20.5603 21.8733 20.135 21.4494 20.135 20.9242V13.9232H18.8986C18.3747 13.9232 17.9494 13.4979 17.9494 12.974C17.9494 12.4501 18.3747 12.0248 18.8986 12.0248H23.2888C23.8127 12.0248 24.2379 12.4501 24.2379 12.974V12.974Z" fill="black"/>
<path d="M44.9663 12.974C44.9663 13.4979 44.5412 13.9232 44.0171 13.9232H42.7617V20.9242C42.7617 21.4494 42.3378 21.8733 41.8126 21.8733C41.2886 21.8733 40.8634 21.4494 40.8634 20.9242V13.9232H39.627C39.1018 13.9232 38.6778 13.4979 38.6778 12.974C38.6778 12.4501 39.1018 12.0248 39.627 12.0248H44.017C44.5411 12.0248 44.9663 12.4501 44.9663 12.974V12.974Z" fill="black"/>
</svg>
