<svg width="40" height="40" viewBox="0 0 40 40" fill="none" xmlns="http://www.w3.org/2000/svg">
<path d="M14.0332 1.74316L12.7516 4.60441C12.4995 4.57411 12.246 4.55783 11.9922 4.55566C11.1659 4.55051 10.3627 4.69691 9.61172 4.96816L7.79531 2.42434L4.35547 4.93652L6.23539 7.56598C5.65573 8.40165 5.26881 9.35559 5.10258 10.3589L1.76508 10.7251L2.18265 14.9634L5.73484 14.5728C6.13252 15.3709 6.67855 16.086 7.34375 16.6798L5.82765 20.0685L9.68508 21.7946L11.2085 18.3911C12.1191 18.4882 13.0116 18.4011 13.8452 18.1568L16.0424 21.1669L18.5205 19.3555L19.4311 20.9302C18.2823 21.8085 17.2552 22.8355 16.3769 23.9843L12.5316 21.77L10.5223 25.42L14.2821 27.6025C13.7207 28.9469 13.3437 30.3611 13.1616 31.8066H8.78906V36.0035H13.1812C13.3095 36.9332 13.5194 37.8497 13.8086 38.7425H27.0361C25.1677 37.9021 23.8672 36.0247 23.8672 33.8428C23.8672 30.8768 26.2698 28.4717 29.2359 28.4717C32.2018 28.4717 34.607 30.8768 34.607 33.8428C34.607 36.0248 33.3047 37.9021 31.4355 38.7426H38.584V15.6543L37.6709 15.1538L35.5152 18.9062C34.1784 18.3339 32.7697 17.947 31.3281 17.7562V13.4179H27.1312V17.7515C25.7013 17.9372 24.332 18.3127 23.0445 18.8476L20.9253 15.1539L18.1128 16.7359L17.3902 15.7226C17.9557 14.986 18.3675 14.1433 18.6011 13.2445L22.0727 12.8661L21.6554 8.62785L18.3546 8.95262C17.9711 7.96807 17.3682 7.08387 16.5919 6.36715L17.8906 3.46918L14.0332 1.74316ZM11.897 8.3252C13.7173 8.30645 15.2516 9.71793 15.3638 11.5551C15.4795 13.4516 14.0354 15.082 12.1388 15.1977C10.2421 15.3136 8.61187 13.8716 8.49617 11.975C8.38054 10.0786 9.82219 8.44832 11.7188 8.33254C11.7782 8.32894 11.8384 8.32582 11.897 8.3252Z" fill="white"/>
</svg>
