<svg width="40" height="40" viewBox="0 0 40 40" fill="none" xmlns="http://www.w3.org/2000/svg">
<path d="M33.75 6.875H6.25C5.75272 6.875 5.27581 7.07254 4.92417 7.42417C4.57254 7.77581 4.375 8.25272 4.375 8.75V31.25C4.375 31.7473 4.57254 32.2242 4.92417 32.5758C5.27581 32.9275 5.75272 33.125 6.25 33.125H8.34375C8.46148 33.1226 8.57627 33.0878 8.6755 33.0244C8.77474 32.961 8.85458 32.8714 8.90625 32.7656C9.56457 31.3749 10.6042 30.1998 11.9043 29.3768C13.2044 28.5539 14.7114 28.117 16.25 28.117C17.7886 28.117 19.2956 28.5539 20.5957 29.3768C21.8958 30.1998 22.9354 31.3749 23.5938 32.7656C23.6454 32.8714 23.7253 32.961 23.8245 33.0244C23.9237 33.0878 24.0385 33.1226 24.1562 33.125H33.75C34.2473 33.125 34.7242 32.9275 35.0758 32.5758C35.4275 32.2242 35.625 31.7473 35.625 31.25V8.75C35.625 8.25272 35.4275 7.77581 35.0758 7.42417C34.7242 7.07254 34.2473 6.875 33.75 6.875ZM34.375 31.25C34.375 31.4158 34.3092 31.5747 34.1919 31.6919C34.0747 31.8092 33.9158 31.875 33.75 31.875H24.5469C23.3977 29.7136 21.4536 28.0832 19.125 27.3281C20.184 26.6984 21.0069 25.7384 21.4674 24.5957C21.9278 23.4529 22.0004 22.1905 21.6738 21.0025C21.3473 19.8145 20.6398 18.7666 19.6599 18.0197C18.68 17.2729 17.4821 16.8684 16.25 16.8684C15.0179 16.8684 13.82 17.2729 12.8401 18.0197C11.8602 18.7666 11.1527 19.8145 10.8262 21.0025C10.4996 22.1905 10.5722 23.4529 11.0326 24.5957C11.4931 25.7384 12.316 26.6984 13.375 27.3281C11.0464 28.0832 9.10232 29.7136 7.95313 31.875H6.25C6.08549 31.871 5.92881 31.8039 5.81245 31.6875C5.69609 31.5712 5.62897 31.4145 5.625 31.25V8.75C5.625 8.58424 5.69085 8.42527 5.80806 8.30806C5.92527 8.19085 6.08424 8.125 6.25 8.125H33.75C33.9158 8.125 34.0747 8.19085 34.1919 8.30806C34.3092 8.42527 34.375 8.58424 34.375 8.75V31.25ZM16.25 26.875C15.3847 26.875 14.5388 26.6184 13.8194 26.1377C13.0999 25.6569 12.5392 24.9737 12.208 24.1742C11.8769 23.3748 11.7903 22.4951 11.9591 21.6465C12.1279 20.7978 12.5446 20.0183 13.1564 19.4064C13.7683 18.7946 14.5478 18.3779 15.3965 18.2091C16.2451 18.0403 17.1248 18.1269 17.9242 18.458C18.7237 18.7892 19.4069 19.3499 19.8877 20.0694C20.3684 20.7888 20.625 21.6347 20.625 22.5C20.6209 23.6591 20.1586 24.7695 19.339 25.589C18.5195 26.4086 17.4091 26.8709 16.25 26.875ZM30.625 12.5V27.5C30.625 27.6658 30.5592 27.8247 30.4419 27.9419C30.3247 28.0592 30.1658 28.125 30 28.125H27.5C27.3342 28.125 27.1753 28.0592 27.0581 27.9419C26.9408 27.8247 26.875 27.6658 26.875 27.5C26.875 27.3342 26.9408 27.1753 27.0581 27.0581C27.1753 26.9408 27.3342 26.875 27.5 26.875H29.375V13.125H10.625V15C10.625 15.1658 10.5592 15.3247 10.4419 15.4419C10.3247 15.5592 10.1658 15.625 10 15.625C9.83424 15.625 9.67527 15.5592 9.55806 15.4419C9.44085 15.3247 9.375 15.1658 9.375 15V12.5C9.375 12.3342 9.44085 12.1753 9.55806 12.0581C9.67527 11.9408 9.83424 11.875 10 11.875H30C30.1658 11.875 30.3247 11.9408 30.4419 12.0581C30.5592 12.1753 30.625 12.3342 30.625 12.5Z" fill="white"/>
</svg>
