<svg width="40" height="40" viewBox="0 0 40 40" fill="none" xmlns="http://www.w3.org/2000/svg">
<path d="M7 5.41667V34.5833C7 35.0254 7.1756 35.4493 7.48816 35.7618C7.80072 36.0744 8.22464 36.25 8.66667 36.25H10.6083V3.75H8.66667C8.22464 3.75 7.80072 3.92559 7.48816 4.23816C7.1756 4.55072 7 4.97464 7 5.41667V5.41667ZM10.6083 3.75V36.25H31.3333C31.7754 36.25 32.1993 36.0744 32.5118 35.7618C32.8244 35.4493 33 35.0254 33 34.5833V5.41667C33 4.97464 32.8244 4.55072 32.5118 4.23816C32.1993 3.92559 31.7754 3.75 31.3333 3.75H10.6083Z" stroke="white" stroke-linecap="round" stroke-linejoin="round"/>
<path d="M16.8892 9.71338H26.7192V14.6642H16.8892V9.71338Z" stroke="white" stroke-linecap="round" stroke-linejoin="round"/>
</svg>
