<svg width="44" height="46" viewBox="0 0 44 46" fill="none" xmlns="http://www.w3.org/2000/svg">
<g filter="url(#filter0_d_1_1100)">
<path d="M13.6666 36.6665H30.3333" stroke="white" stroke-width="1.5" stroke-linecap="round" stroke-linejoin="round"/>
<path d="M5.33331 28.3333V6.66659C5.33331 5.78253 5.6845 4.93468 6.30962 4.30956C6.93474 3.68444 7.78259 3.33325 8.66665 3.33325H35.3333C36.2174 3.33325 37.0652 3.68444 37.6903 4.30956C38.3155 4.93468 38.6666 5.78253 38.6666 6.66659V28.3333C38.6666 29.2173 38.3155 30.0652 37.6903 30.6903C37.0652 31.3154 36.2174 31.6666 35.3333 31.6666H8.66665C7.78259 31.6666 6.93474 31.3154 6.30962 30.6903C5.6845 30.0652 5.33331 29.2173 5.33331 28.3333Z" stroke="white" stroke-width="1.5"/>
<path d="M17 17.4998L20.3333 20.8332L27 14.1665" stroke="white" stroke-width="1.5" stroke-linecap="round" stroke-linejoin="round"/>
</g>
<defs>
<filter id="filter0_d_1_1100" x="-2" y="0" width="48" height="48" filterUnits="userSpaceOnUse" color-interpolation-filters="sRGB">
<feFlood flood-opacity="0" result="BackgroundImageFix"/>
<feColorMatrix in="SourceAlpha" type="matrix" values="0 0 0 0 0 0 0 0 0 0 0 0 0 0 0 0 0 0 127 0" result="hardAlpha"/>
<feOffset dy="4"/>
<feGaussianBlur stdDeviation="2"/>
<feComposite in2="hardAlpha" operator="out"/>
<feColorMatrix type="matrix" values="0 0 0 0 0 0 0 0 0 0 0 0 0 0 0 0 0 0 0.25 0"/>
<feBlend mode="normal" in2="BackgroundImageFix" result="effect1_dropShadow_1_1100"/>
<feBlend mode="normal" in="SourceGraphic" in2="effect1_dropShadow_1_1100" result="shape"/>
</filter>
</defs>
</svg>
