<svg width="73" height="72" viewBox="0 0 73 72" fill="none" xmlns="http://www.w3.org/2000/svg">
<g clip-path="url(#clip0_1_1235)">
<path d="M58.8656 58.1553C58.8656 58.1553 62.1783 59.1425 63.3148 58.006C64.4513 56.8694 63.3148 53.9539 63.3148 53.9539L57.3177 52.7682" fill="#F1D0A5"/>
<path d="M33.8002 53.954C33.8002 53.954 32.6636 56.8696 33.8002 58.0061C34.9367 59.1427 38.2494 58.1555 38.2494 58.1555L42.0729 51.9268H35.5259L33.8002 53.954Z" fill="#F1B986"/>
<path d="M54.0627 62.1675L52.6564 67.6547L48.5572 69.307L46.7261 68.5687L44.4578 67.6547L43.0516 62.1675L45.8178 60.6839L48.8075 59.0808L54.0627 62.1675Z" fill="#F1D0A5"/>
<path d="M46.7261 68.5687L44.4578 67.6547L43.0516 62.1675L45.8178 60.6839L46.7261 68.5687Z" fill="#F1B986"/>
<path d="M48.5572 59.627H50.4593V68.1068H48.5572V59.627Z" fill="#F1B986"/>
<path d="M71.0347 35.512C71.0347 35.512 67.1071 39.8433 57.3083 38.88H39.8075C30.0074 39.8433 26.0797 35.512 26.0797 35.512C28.3944 33.1973 28.3241 28.2178 28.3241 19.3795C28.3241 10.5413 31.8311 1.05469 48.5572 1.05469C65.2833 1.05469 68.7903 10.5413 68.7903 19.3795C68.7903 28.2178 68.72 33.1973 71.0347 35.512Z" fill="#665E66"/>
<path d="M41.8042 19.1292V38.88H39.8074C30.0072 39.8433 26.0796 35.512 26.0796 35.512C28.3942 33.1973 28.3239 28.2178 28.3239 19.3795C28.3239 10.5413 31.8311 1.05469 48.5572 1.05469C40.81 1.05469 41.8042 11.3034 41.8042 19.1292Z" fill="#454045"/>
<path d="M58.806 53.9536C58.806 53.9536 59.1491 57.8587 58.5852 62.1675H38.5292C37.9667 57.8587 38.3099 53.9536 38.3099 53.9536H33.8C33.8 41.3451 38.9202 37.1798 39.8075 36.5526H57.3083C58.1956 37.1798 63.3144 41.3451 63.3144 53.9536H58.806Z" fill="#DA4A54"/>
<path d="M45.1597 40.2356C41.9788 45.6609 42.447 56.3217 43.0517 62.1675H38.5292C37.9667 57.8587 38.3099 53.9536 38.3099 53.9536H33.8C33.8 41.3451 38.9202 37.1798 39.8075 36.5526H45.5774C45.9331 37.748 45.8853 38.9981 45.1597 40.2356Z" fill="#C32430"/>
<path d="M48.5572 42.2553C52.5085 42.2553 55.7116 39.9293 55.7116 37.0602C55.7116 34.191 52.5085 31.8651 48.5572 31.8651C44.6059 31.8651 41.4028 34.191 41.4028 37.0602C41.4028 39.9293 44.6059 42.2553 48.5572 42.2553Z" fill="#F1B986"/>
<path d="M63.0275 29.205C62.8152 33.3801 59.4739 36.7045 55.296 36.9014C52.0096 37.0561 48.7232 37.0983 45.4353 37.0266C45.4311 37.0266 45.4255 37.0266 45.4213 37.0252C44.2203 36.9998 43.0194 36.9576 41.8185 36.9014C37.6419 36.7045 34.3006 33.3801 34.0869 29.205C33.9336 26.2294 33.9181 23.2551 34.0363 20.2795H34.0377C34.0377 20.2795 37.4703 20.1051 41.8044 19.1292C45.6561 18.263 50.2194 16.7625 53.7167 14.1891C53.7167 14.1891 57.3646 20.2795 63.0782 20.2795C63.1975 23.2551 63.1807 26.2294 63.0275 29.205Z" fill="#F1D0A5"/>
<path d="M45.4213 37.0252C44.2203 36.9998 43.0194 36.9576 41.8185 36.9014C37.6419 36.7045 34.3006 33.3801 34.0869 29.205C33.9336 26.2294 33.9181 23.2551 34.0363 20.2795H34.0377C34.0377 20.2795 37.4703 20.1051 41.8044 19.1292V19.1306C40.8368 27.4275 41.8156 36.8761 45.4213 37.0252Z" fill="#F1B986"/>
<path d="M40.8774 70.9453H48.5571V67.6544H44.1682C42.3507 67.6544 40.8774 69.1279 40.8774 70.9453Z" fill="#70C6DA"/>
<path d="M46.2663 67.654C44.449 67.654 42.975 69.128 42.975 70.9453H40.8774C40.8774 69.128 42.35 67.654 44.1673 67.654H46.2663Z" fill="#63AFCB"/>
<path d="M56.2369 70.9453H48.5572V67.6544H52.9461C54.7636 67.6544 56.2369 69.1279 56.2369 70.9453Z" fill="#70C6DA"/>
<path d="M57.5828 28.4514C58.7708 28.4514 59.7339 27.8442 59.7339 27.0952C59.7339 26.3462 58.7708 25.739 57.5828 25.739C56.3948 25.739 55.4317 26.3462 55.4317 27.0952C55.4317 27.8442 56.3948 28.4514 57.5828 28.4514Z" fill="#EAAC9D"/>
<path d="M39.532 28.4514C40.7201 28.4514 41.6832 27.8442 41.6832 27.0952C41.6832 26.3462 40.7201 25.739 39.532 25.739C38.344 25.739 37.3809 26.3462 37.3809 27.0952C37.3809 27.8442 38.344 28.4514 39.532 28.4514Z" fill="#EAAC9D"/>
<path d="M8.73474 58.1553C8.73474 58.1553 5.42204 59.1425 4.28551 58.006C3.14897 56.8695 4.28551 53.9539 4.28551 53.9539L9.91332 51.6509L8.73474 58.1553Z" fill="#F1D0A5"/>
<path d="M33.8002 53.954C33.8002 53.954 34.9367 56.8696 33.8002 58.0061C32.6636 59.1427 29.3509 58.1555 29.3509 58.1555L27.8988 52.0886L33.8002 53.954Z" fill="#F1D0A5"/>
<path d="M29.2903 53.9533C29.2903 53.9533 29.9895 61.9232 27.7533 67.654H20.7642C20.7642 67.654 22.5171 59.5299 19.0435 56.0551C15.5687 59.5299 17.3214 67.654 17.3214 67.654H10.3324C8.09616 61.9232 8.79535 53.9533 8.79535 53.9533H4.28494C4.28494 41.3442 9.40482 37.1799 10.2917 36.5522H27.7938C28.6807 37.18 33.8006 41.3442 33.8006 53.9533H29.2903Z" fill="#B9E4EF"/>
<path d="M31.3149 53.9533H29.2902C29.2902 50.8777 28.1721 47.8946 28.1721 47.8946C28.1721 47.8946 30.9758 48.8825 31.3149 53.9533Z" fill="#7AD0DF"/>
<path d="M12.6836 36.5522C10.6001 39.3643 6.80438 45.6431 6.9038 53.9533H4.28494C4.28494 41.3442 9.40482 37.1799 10.2917 36.5522H12.6836Z" fill="#7AD0DF"/>
<path d="M27.7517 67.654H20.7627C20.7627 67.654 22.5156 59.53 19.042 56.0551C15.5686 59.53 17.3213 67.654 17.3213 67.654H10.3308C8.09462 61.9232 8.7938 53.9533 8.7938 53.9533C8.7938 53.1644 8.86806 52.3799 8.97732 51.6512H29.1065C29.2158 52.3797 29.29 53.1644 29.29 53.9533C29.2903 53.9533 29.9881 61.9232 27.7517 67.654Z" fill="#665E66"/>
<path d="M12.4005 67.654H10.3311C8.09489 61.9232 8.79408 53.9533 8.79408 53.9533C8.79408 53.1644 8.86833 52.3799 8.9776 51.6512H12.2942C11.5907 54.2827 10.7206 59.7458 12.4005 67.654Z" fill="#454045"/>
<path d="M22.587 67.654H20.7627C20.7627 67.654 22.5156 59.5299 19.042 56.0551C22.587 56.0551 24.4101 62.1586 22.587 67.654Z" fill="#454045"/>
<path d="M21.2947 40.8005H16.791L15.9938 35.3926H22.0919L21.2947 40.8005Z" fill="#DA4A54"/>
<path d="M33.6106 26.6224H33.631C35.3828 26.6224 36.8022 25.2018 36.8022 23.4512C36.8022 21.6994 35.3828 20.2787 33.631 20.2787C33.6082 20.2787 33.5854 20.2787 33.5627 20.28H4.52316C4.50038 20.2787 4.4776 20.2787 4.45482 20.2787C2.70305 20.2787 1.28358 21.6993 1.28358 23.4512C1.28358 25.2018 2.70305 26.6224 4.45482 26.6224H4.47521" fill="#F1B986"/>
<path d="M35.0358 20.6075L13.496 20.6997L2.79994 20.7447C1.9846 13.2999 -0.382119 3.63151 8.31301 1.90844C10.4004 1.4943 12.2805 1.24876 13.9701 1.13331C25.2879 0.365218 28.1032 5.47567 28.1032 5.47567C28.1032 5.47567 30.1515 3.67651 32.3786 3.85989C33.1837 3.92556 34.0129 4.25209 34.7764 5.01555C38.8037 9.04291 35.0358 20.6075 35.0358 20.6075Z" fill="#E27D47"/>
<path d="M32.3786 3.85986C29.7329 5.67758 28.0016 11.1167 27.2001 14.2169C26.4158 11.059 27.3742 7.58291 28.1032 5.47579C28.1032 5.47564 30.1515 3.67649 32.3786 3.85986Z" fill="#DD542E"/>
<path d="M12.3035 12.6759L13.496 20.6997L2.79994 20.7447C1.9846 13.2999 -0.382118 3.6315 8.31301 1.90843C10.4004 1.49429 12.2805 1.24875 13.9701 1.1333C13.9701 1.13443 13.9689 1.13443 13.9689 1.13443C9.61505 3.81249 10.9599 8.58277 12.3035 12.6759Z" fill="#DD542E"/>
<path d="M33.6414 24.1944C33.6414 25.8645 33.5988 27.5356 33.5134 29.2057C33.3001 33.3809 29.9588 36.7047 25.7814 36.902C22.8612 37.0403 19.9397 37.0876 17.0195 37.0461H17.0184C15.4463 37.0242 13.8756 36.9758 12.3035 36.902C8.12724 36.7048 4.78599 33.3809 4.57154 29.2057C4.41924 26.2301 4.40321 23.2556 4.52189 20.28H4.52302C6.1516 19.6768 7.12036 17.8014 7.6958 15.7163C8.28628 13.5768 10.3358 12.4073 12.3034 12.6761C13.0703 12.781 13.8258 13.1051 14.4763 13.6749C15.783 14.8191 17.4127 15.3911 19.0424 15.3911C20.6721 15.3911 22.3029 14.8191 23.6096 13.6749C24.4192 12.9656 25.3892 12.6381 26.3442 12.6381C28.1261 12.6381 29.8549 13.7798 30.3901 15.7164C30.9645 17.8016 31.9334 19.677 33.5629 20.2801C33.6161 21.5855 33.6414 22.89 33.6414 24.1944Z" fill="#F1D0A5"/>
<path d="M17.0184 37.046C15.4463 37.024 13.8756 36.9756 12.3035 36.9018C8.12724 36.7047 4.78599 33.3807 4.57154 29.2056C4.41924 26.2299 4.40321 23.2554 4.52189 20.2798H4.52302C6.1516 19.6767 7.12036 17.8013 7.6958 15.7161C8.28629 13.5766 10.3358 12.4072 12.3034 12.6759C10.8099 26.012 12.3035 36.8996 17.0184 37.046Z" fill="#F1B986"/>
<path d="M16.791 40.8005H21.2947L22.0919 46.2082L19.0428 48.3944L15.9938 46.2082L16.791 40.8005Z" fill="#DA4A54"/>
<path d="M8.23595 70.9453H17.3219V67.6544H11.5267C9.70927 67.6544 8.23595 69.1279 8.23595 70.9453Z" fill="#AA593D"/>
<path d="M13.6248 67.654C11.8075 67.654 10.3335 69.128 10.3335 70.9453H8.23595C8.23595 69.128 9.70857 67.654 11.5259 67.654H13.6248Z" fill="#934D36"/>
<path d="M29.8497 70.9453H20.7638V67.6544H26.559C28.3764 67.6544 29.8497 69.1279 29.8497 70.9453Z" fill="#AA593D"/>
<path d="M11.9345 31.8182H15.4645C17.4407 31.8182 19.0427 30.2162 19.0427 28.24V26.8612H15.5127C13.5365 26.8612 11.9345 28.4632 11.9345 30.4394V31.8182Z" fill="#AA593D"/>
<path d="M26.1506 31.8182H22.6206C20.6444 31.8182 19.0424 30.2162 19.0424 28.24V26.8612H22.5724C24.5486 26.8612 26.1506 28.4632 26.1506 30.4394V31.8182Z" fill="#AA593D"/>
<path d="M48.5575 30.9177C50.2242 30.9177 51.7628 29.9445 52.4776 28.4386C52.7273 27.9124 52.5033 27.2833 51.9769 27.0336C51.4507 26.7838 50.8218 27.008 50.5719 27.5342C50.2045 28.3082 49.4138 28.8084 48.5574 28.8084C47.7009 28.8084 46.9102 28.3084 46.5429 27.5344C46.2931 27.0081 45.664 26.7838 45.1379 27.0337C44.6117 27.2835 44.3875 27.9125 44.6371 28.4387C45.3521 29.9445 46.8908 30.9177 48.5575 30.9177Z" fill="black"/>
<path d="M41.805 25.0106C42.5356 25.0106 43.1301 24.1267 43.1301 23.0404C43.1301 21.9541 42.5356 21.0703 41.805 21.0703C41.0743 21.0703 40.4798 21.9541 40.4798 23.0404C40.4798 24.1267 41.0743 25.0106 41.805 25.0106Z" fill="black"/>
<path d="M55.3102 25.0106C56.0408 25.0106 56.6353 24.1267 56.6353 23.0404C56.6353 21.9541 56.0408 21.0703 55.3102 21.0703C54.5795 21.0703 53.985 21.9541 53.985 23.0404C53.985 24.1267 54.5795 25.0106 55.3102 25.0106Z" fill="black"/>
<path d="M71.7797 34.7663C69.8412 32.8278 69.8423 28.0517 69.8442 20.139L69.8443 19.3795C69.8443 13.8307 68.4659 9.40261 65.7475 6.21802C62.2255 2.09208 56.4416 0 48.5565 0C42.684 0 37.9583 1.16395 34.493 3.4605C32.3225 2.15817 29.8729 2.9977 28.2988 4.0147C26.5363 2.115 21.1979 -1.71858 8.10812 0.874406C4.24993 1.6387 1.90374 3.97083 1.13494 7.80595C0.497913 10.9838 0.976882 14.7083 1.4401 18.3101C1.52687 18.9847 1.60983 19.6305 1.68437 20.2634C0.793647 21.0389 0.228897 22.1801 0.228897 23.4513C0.228897 25.4346 1.60252 27.1022 3.44808 27.5552C3.46721 28.124 3.48971 28.6923 3.51868 29.2591C3.68898 32.5849 5.59416 35.4174 8.35435 36.8868C6.40768 38.9821 3.27287 43.8878 3.23223 53.7612C2.91498 54.6458 2.11876 57.3308 3.53991 58.752C4.19691 59.409 5.20294 59.6084 6.18282 59.6084C6.7186 59.6084 7.2458 59.5485 7.70424 59.4714C7.84177 61.904 8.21443 64.7754 9.09755 67.3442C7.94232 68.1261 7.1814 69.4486 7.1814 70.9456C7.1814 71.5281 7.65362 72.0003 8.23608 72.0003H17.322C17.9045 72.0003 18.3767 71.5281 18.3767 70.9456V67.6547C18.3767 67.6242 18.3614 67.4723 18.3535 67.435C18.3533 67.434 18.3532 67.4332 18.3531 67.4322C17.9513 65.5696 17.4141 60.6442 19.0426 57.7932C20.6656 60.6405 20.1324 65.5684 19.733 67.4322C19.7329 67.4332 19.7327 67.434 19.7326 67.435C19.7247 67.4723 19.7094 67.624 19.7094 67.6547V70.9453C19.7094 71.5278 20.1816 72 20.7641 72H29.85C30.4325 72 30.9047 71.5278 30.9047 70.9453C30.9047 69.4484 30.1438 68.1258 28.9885 67.3439C29.8715 64.7753 30.2443 61.9037 30.3819 59.4712C30.8403 59.5482 31.3675 59.6081 31.9033 59.6081C32.5607 59.6081 33.2296 59.5174 33.7974 59.2598C34.2988 59.4903 34.9198 59.6071 35.6585 59.6071C35.9431 59.6071 36.2452 59.59 36.5641 59.5555C36.7938 59.5308 37.015 59.4986 37.2223 59.4637C37.2732 60.3624 37.3553 61.3208 37.4836 62.3039C37.5522 62.8291 37.9996 63.222 38.5294 63.222H42.2333L43.1312 66.7257C41.2344 67.1922 39.8229 68.9065 39.8229 70.9452C39.8229 71.5276 40.2951 71.9999 40.8775 71.9999H56.2369C56.8194 71.9999 57.2916 71.5276 57.2916 70.9452C57.2916 68.9065 55.8801 67.192 53.9832 66.7257L54.8811 63.222H58.585C59.1146 63.222 59.5621 62.8293 59.6309 62.3042C59.7593 61.3235 59.8415 60.3674 59.8927 59.4705C60.352 59.5478 60.8806 59.608 61.4178 59.608C62.3975 59.608 63.4038 59.4084 64.0607 58.7516C65.4826 57.3296 64.6846 54.6422 64.3678 53.7593C64.3407 47.2064 62.9517 42.8425 61.4508 40.0362C62.3809 39.9867 63.2812 39.8876 64.1409 39.7374C64.7147 39.6371 65.0985 39.0907 64.9981 38.5168C64.8978 37.943 64.3512 37.5592 63.7776 37.6595C62.6397 37.8585 61.4191 37.9603 60.142 37.964C59.8275 37.5431 59.5248 37.1859 59.2464 36.8864C62.007 35.4168 63.9118 32.5845 64.0809 29.2591C64.2351 26.2655 64.2524 23.2301 64.1321 20.2371C64.1094 19.6715 63.6443 19.2247 63.0783 19.2247C61.0003 19.2247 58.9605 18.3084 57.0157 16.5014C55.5035 15.0964 54.6295 13.6599 54.6218 13.647C54.4692 13.3921 54.2161 13.2134 53.9249 13.1549C53.6339 13.0963 53.3313 13.1633 53.0919 13.3394C47.9967 17.0886 40.3727 18.487 36.5919 18.9702C36.8886 17.7951 37.238 16.1959 37.4627 14.4565C38.0216 10.1318 37.5609 6.93802 36.0956 4.94072C39.1718 3.06141 43.3556 2.10938 48.5565 2.10938C61.4617 2.10938 67.7349 7.75856 67.7349 19.3795L67.7348 20.1385C67.733 27.9683 67.7318 32.6496 69.5664 35.3787C69.1239 35.7036 68.4627 36.1235 67.5651 36.5275C67.0339 36.7665 66.7971 37.3909 67.0362 37.9221C67.212 38.3127 67.5963 38.5442 67.9986 38.5442C68.1433 38.5442 68.2904 38.5142 68.4309 38.451C70.6663 37.4448 71.7042 36.343 71.8152 36.2208C72.1932 35.8041 72.1777 35.1641 71.7797 34.7663ZM2.33813 23.4512C2.33813 22.6575 2.7773 21.9653 3.4246 21.6028C3.39268 22.8255 3.38396 24.0536 3.39732 25.282C2.76521 24.9154 2.33813 24.2329 2.33813 23.4512ZM5.6251 29.1513C5.48616 26.4293 5.46198 23.6756 5.55296 20.9565C6.96891 20.1382 8.02965 18.4742 8.71154 15.9975C9.20372 14.2173 10.9607 13.4615 12.3744 13.7589C12.9451 13.879 13.5038 13.5139 13.6237 12.944C13.7437 12.374 13.3787 11.8146 12.8088 11.6947C10.1079 11.1264 7.41554 12.7696 6.6781 15.4365C6.28491 16.865 5.55746 18.6533 4.30604 19.2281C4.09693 19.2354 3.89176 19.2579 3.69137 19.2947C3.64032 18.8848 3.58702 18.469 3.53204 18.0413C3.09062 14.6085 2.63401 11.0589 3.20298 8.22094C3.80471 5.21972 5.49348 3.54291 8.5179 2.94384C12.8666 2.08238 19.0151 1.45856 23.6103 3.37894C26.2869 4.49747 27.1771 5.98148 27.1795 5.98514C27.3338 6.26513 27.6068 6.45989 27.9216 6.51502C28.2368 6.57014 28.5594 6.4793 28.7994 6.26836C28.8074 6.26133 29.6296 5.55455 30.7209 5.15883C32.0577 4.67395 33.1405 4.87111 34.0311 5.76169C36.6796 8.41022 35.3441 15.675 34.3329 19.2838C34.152 19.2534 33.9674 19.2347 33.7795 19.2281C32.5286 18.6535 31.8002 16.8649 31.4059 15.436C30.7798 13.1678 28.6981 11.5836 26.3434 11.5836C25.087 11.5836 23.8692 12.0445 22.9149 12.881C21.8423 13.8199 20.4668 14.337 19.042 14.337C18.2216 14.337 17.4265 14.1706 16.6788 13.8424C16.1454 13.6083 15.5231 13.8509 15.2891 14.3843C15.055 14.9176 15.2976 15.5398 15.831 15.7739C16.8475 16.2201 17.928 16.4464 19.042 16.4464C20.978 16.4464 22.8467 15.7438 24.3047 14.4678C24.883 13.9608 25.5879 13.6929 26.3434 13.6929C27.5346 13.6929 28.9333 14.4053 29.3724 15.9971C30.0562 18.4745 31.1173 20.1383 32.5324 20.9565C32.5687 22.0438 32.5871 23.1318 32.5871 24.199C32.5871 25.85 32.5445 27.5161 32.4606 29.1513C32.274 32.7971 29.381 35.6761 25.7311 35.8481C21.2934 36.0579 16.7924 36.0579 12.353 35.8481C8.70408 35.6759 5.81171 32.7968 5.6251 29.1513ZM31.6057 39.4457C32.7633 39.7319 34.115 39.9511 35.6649 40.0352C34.9807 41.3141 34.3195 42.9155 33.7999 44.901C33.1973 42.5981 32.4042 40.8108 31.6057 39.4457ZM30.3065 52.8993C30.1081 50.0846 29.203 47.6395 29.16 47.5248C28.9554 46.9793 28.3473 46.7033 27.8021 46.9076C27.2567 47.112 26.9803 47.7201 27.1849 48.2655C27.1909 48.2818 27.5452 49.2384 27.8406 50.5965H20.0982V48.9357L22.7065 47.0656C23.0274 46.8356 23.193 46.4453 23.1354 46.0547L22.3609 40.8014L22.7638 38.0655C23.7884 38.0391 24.8113 38.0033 25.8305 37.9552C26.4241 37.9273 27.0022 37.844 27.5599 37.7107C28.148 38.2181 29.1884 39.2982 30.1921 41.2438C31.7693 44.301 32.6227 48.2182 32.7331 52.8996H30.3065V52.8993ZM20.3841 39.7455H17.7018L17.4602 38.1054C17.9876 38.1112 18.5151 38.1147 19.0426 38.1147C19.5703 38.1147 20.0979 38.1112 20.6256 38.1054L20.3841 39.7455ZM17.7017 41.8552H20.3841L20.9548 45.7259L19.0428 47.0967L17.131 45.7259L17.7017 41.8552ZM36.9751 37.962C33.8778 37.9526 31.5836 37.3591 30.0192 36.7267C31.6878 35.7595 33.0172 34.2835 33.8003 32.5031C34.6279 34.3849 36.0658 35.9265 37.8691 36.8866C37.5911 37.1856 37.2889 37.5421 36.9751 37.962ZM34.6896 25.2813C34.6936 24.9202 34.6965 24.559 34.6965 24.1987C34.6965 23.3429 34.6838 22.4738 34.6609 21.6027C35.3084 21.9653 35.7475 22.6575 35.7475 23.4512C35.7475 24.2325 35.321 24.9145 34.6896 25.2813ZM10.5284 37.7114C11.0849 37.8442 11.6616 37.927 12.2536 37.955C13.2738 38.0032 14.2973 38.0389 15.3223 38.0654L15.7251 40.7998L14.9504 46.0545C14.8927 46.4452 15.0584 46.8354 15.3793 47.0655L17.9888 48.9365V50.5963H10.2463C10.5416 49.24 10.8949 48.2812 10.9008 48.2653C11.1054 47.72 10.8289 47.1119 10.2836 46.9074C9.73796 46.7028 9.13018 46.9792 8.92571 47.5246C8.88268 47.6395 7.97762 50.0846 7.77919 52.8992H5.35271C5.59515 42.8704 9.26321 38.8159 10.5284 37.7114ZM5.03124 57.2603C4.73579 56.9648 4.80019 55.9533 5.05205 55.0087H7.67443C7.64827 55.6054 7.62704 56.4057 7.63519 57.3401C6.38785 57.5871 5.29927 57.5283 5.03124 57.2603ZM16.2672 69.8906H9.55529C9.93272 69.1879 10.6748 68.7091 11.5267 68.7091H16.2672V69.8906ZM21.8185 69.8906V68.7091H26.559C27.4109 68.7091 28.1529 69.1879 28.5304 69.8906H21.8185ZM22.0131 66.5997C22.3735 64.0385 22.776 58.2974 19.7886 55.3099C19.5909 55.1122 19.3225 55.001 19.0428 55.001C18.7631 55.001 18.4948 55.1121 18.2971 55.3099C15.3097 58.2974 15.7123 64.0385 16.0727 66.5997H11.0708C9.24816 61.2292 9.87296 53.1155 9.91163 52.7057H28.1745C28.213 53.115 28.8376 61.2294 27.0149 66.5997H22.0131ZM30.4505 57.3403C30.4586 56.4058 30.4374 55.6054 30.4112 55.0087H33.0336C33.2853 55.9534 33.3499 56.9648 33.0544 57.2603C32.7864 57.5284 31.6975 57.5871 30.4505 57.3403ZM35.2413 57.4785C35.4473 56.6627 35.3608 55.7544 35.2053 55.0083H37.1899C37.1642 55.6043 37.1438 56.4057 37.1525 57.3411C36.4138 57.4886 35.7319 57.5274 35.2413 57.4785ZM47.5025 66.5997H45.2763L44.4106 63.2222H47.5024V66.5997H47.5025ZM44.1683 68.7091H47.5025V69.8906H42.1969C42.5742 69.1879 43.3164 68.7091 44.1683 68.7091ZM54.9174 69.8906H49.6118V68.7091H52.9458C53.7979 68.7091 54.5401 69.1879 54.9174 69.8906ZM51.838 66.5997H49.6119V63.2222H52.7037L51.838 66.5997ZM62.5691 57.2603C62.3009 57.5286 61.2108 57.5872 59.9629 57.3397C59.9717 56.4048 59.9514 55.6038 59.9258 55.0083H62.5483C62.8001 55.953 62.8647 56.9648 62.5691 57.2603ZM58.7081 39.575C58.7238 39.6 58.7408 39.624 58.7586 39.6477C59.0679 40.0992 59.3891 40.628 59.7067 41.2436C61.2836 44.3007 62.1369 48.2178 62.2473 52.8989H59.8211C59.6227 50.0843 58.7176 47.6395 58.6746 47.5246C58.4701 46.9792 57.8621 46.7031 57.3167 46.9074C56.7714 47.1119 56.4949 47.72 56.6995 48.2653C56.7101 48.2933 58.5707 53.8999 57.6464 61.1128H39.4681C38.6495 53.0114 40.4053 48.2927 40.4154 48.2653C40.6201 47.72 40.3436 47.1119 39.7982 46.9074C39.2528 46.7028 38.6448 46.9792 38.4404 47.5246C38.3973 47.6395 37.4923 50.0843 37.2938 52.8989H34.8671C35.1095 42.8676 38.7784 38.8149 40.0435 37.7114C40.1622 37.7397 40.2824 37.7646 40.4029 37.7883C40.6186 39.241 41.4772 40.5697 42.8779 41.5868C44.4081 42.6977 46.4251 43.3095 48.5569 43.3095C50.6888 43.3095 52.7057 42.6977 54.2359 41.5868C55.6367 40.5697 56.4952 39.241 56.7109 37.7883C56.8328 37.7643 56.9544 37.7391 57.0744 37.7103C57.4665 38.0483 58.0591 38.6412 58.7081 39.575ZM42.621 37.9901C44.5933 38.0714 46.575 38.1146 48.5578 38.1146C50.54 38.1146 52.5219 38.0714 54.4934 37.9901C53.8523 39.804 51.3946 41.2003 48.5572 41.2003C45.7198 41.2003 43.2621 39.804 42.621 37.9901ZM53.4477 15.6608C53.9097 16.2832 54.6142 17.143 55.5339 18.0041C57.5571 19.8984 59.7934 21.0163 62.0578 21.2756C62.1367 23.8942 62.1087 26.5388 61.9741 29.1513C61.7886 32.797 58.8962 35.6757 55.246 35.8477C50.8082 36.0575 46.3072 36.0575 41.868 35.8477C38.219 35.6757 35.3266 32.7967 35.14 29.1503C35.1108 28.586 35.0869 28.0081 35.0676 27.4253C36.6927 26.836 37.8571 25.2771 37.8571 23.451C37.8571 22.5529 37.5747 21.72 37.0954 21.0344C41.2028 20.5016 48.1886 19.1263 53.4477 15.6608Z" fill="black"/>
<path d="M12.2903 24.3074C13.021 24.3074 13.6154 23.4236 13.6154 22.3373C13.6154 21.251 13.021 20.3671 12.2903 20.3671C11.5596 20.3671 10.9652 21.251 10.9652 22.3373C10.9651 23.4236 11.5596 24.3074 12.2903 24.3074Z" fill="black"/>
<path d="M25.7955 24.3074C26.5262 24.3074 27.1206 23.4236 27.1206 22.3373C27.1206 21.251 26.5262 20.3671 25.7955 20.3671C25.0648 20.3671 24.4704 21.251 24.4704 22.3373C24.4704 23.4236 25.0648 24.3074 25.7955 24.3074Z" fill="black"/>
<path d="M19.0425 31.1797C19.8929 32.213 21.181 32.8731 22.6206 32.8731H26.1506C26.733 32.8731 27.2053 32.4009 27.2053 31.8184V30.4396C27.2053 27.885 25.127 25.8067 22.5725 25.8067H19.0425H15.5126C12.958 25.8067 10.8797 27.885 10.8797 30.4396V31.8184C10.8797 32.4009 11.3519 32.8731 11.9344 32.8731H15.4643C16.9039 32.8729 18.1922 32.2128 19.0425 31.1797ZM25.0959 30.4396V30.7637H22.6206C21.2291 30.7637 20.0972 29.6317 20.0972 28.2402V27.916H22.5725C23.9639 27.916 25.0959 29.0481 25.0959 30.4396ZM12.9892 30.4396C12.9892 29.0481 14.1212 27.916 15.5127 27.916H17.988V28.2402C17.988 29.6317 16.856 30.7637 15.4645 30.7637H12.9892V30.4396Z" fill="black"/>
</g>
<defs>
<clipPath id="clip0_1_1235">
<rect width="72" height="72" fill="white" transform="translate(0.158722)"/>
</clipPath>
</defs>
</svg>
