<svg width="63" height="60" viewBox="0 0 63 60" fill="none" xmlns="http://www.w3.org/2000/svg">
<path d="M61.1587 9.99994V54.9999C61.1587 56.0608 60.7373 57.0782 59.9871 57.8284C59.237 58.5785 58.2196 58.9999 57.1587 58.9999H5.15872C4.09786 58.9999 3.08044 58.5785 2.33029 57.8284C1.58015 57.0782 1.15872 56.0608 1.15872 54.9999V9.99994H61.1587Z" fill="#83D8F4"/>
<path d="M61.1587 8.00006V10.0001H1.15872V8.00006C1.15872 6.9392 1.58015 5.92178 2.33029 5.17163C3.08044 4.42149 4.09786 4.00006 5.15872 4.00006H57.1587C58.2196 4.00006 59.237 4.42149 59.9871 5.17163C60.7373 5.92178 61.1587 6.9392 61.1587 8.00006Z" fill="#57565C"/>
<path d="M23.1586 1H27.1586V7H23.1586V1Z" fill="#FFDA44"/>
<path d="M11.1587 1H15.1587V7H11.1587V1Z" fill="#FFDA44"/>
<path d="M47.1588 1H51.1588V7H47.1588V1Z" fill="#FFDA44"/>
<path d="M35.1588 1H39.1588V7H35.1588V1Z" fill="#FFDA44"/>
<path d="M39.1588 20.0001H24.1588C23.0542 20.0001 22.1588 20.8955 22.1588 22.0001V34.0001C22.1588 35.1046 23.0542 36.0001 24.1588 36.0001H39.1588C40.2634 36.0001 41.1588 35.1046 41.1588 34.0001V22.0001C41.1588 20.8955 40.2634 20.0001 39.1588 20.0001Z" fill="#D80027"/>
<path d="M35.1587 28.9999L28.1587 31.9999V23.9999L35.1587 26.9999V28.9999Z" fill="#E0E0E2"/>
<path d="M57.1587 3H52.1587V1C52.1587 0.734784 52.0534 0.48043 51.8658 0.292893C51.6783 0.105357 51.4239 0 51.1587 0H47.1587C46.8935 0 46.6392 0.105357 46.4516 0.292893C46.2641 0.48043 46.1587 0.734784 46.1587 1V3H40.1587V1C40.1587 0.734784 40.0534 0.48043 39.8658 0.292893C39.6783 0.105357 39.4239 0 39.1587 0H35.1587C34.8935 0 34.6392 0.105357 34.4516 0.292893C34.2641 0.48043 34.1587 0.734784 34.1587 1V3H28.1587V1C28.1587 0.734784 28.0534 0.48043 27.8658 0.292893C27.6783 0.105357 27.4239 0 27.1587 0H23.1587C22.8935 0 22.6392 0.105357 22.4516 0.292893C22.2641 0.48043 22.1587 0.734784 22.1587 1V3H16.1587V1C16.1587 0.734784 16.0534 0.48043 15.8658 0.292893C15.6783 0.105357 15.4239 0 15.1587 0H11.1587C10.8935 0 10.6392 0.105357 10.4516 0.292893C10.2641 0.48043 10.1587 0.734784 10.1587 1V3H5.15872C3.83305 3.00132 2.56205 3.52853 1.62465 4.46593C0.687255 5.40332 0.160046 6.67432 0.158722 8V55C0.160046 56.3257 0.687255 57.5967 1.62465 58.5341C2.56205 59.4715 3.83305 59.9987 5.15872 60H57.1587C58.4844 59.9987 59.7554 59.4715 60.6928 58.5341C61.6302 57.5967 62.1574 56.3257 62.1587 55V8C62.1574 6.67432 61.6302 5.40332 60.6928 4.46593C59.7554 3.52853 58.4844 3.00132 57.1587 3ZM48.1587 2H50.1587V6H48.1587V2ZM36.1587 2H38.1587V6H36.1587V2ZM24.1587 2H26.1587V6H24.1587V2ZM12.1587 2H14.1587V6H12.1587V2ZM60.1587 55C60.1577 55.7953 59.8413 56.5578 59.2789 57.1202C58.7165 57.6825 57.954 57.9989 57.1587 58H5.15872C4.3634 57.9989 3.60095 57.6825 3.03857 57.1202C2.47619 56.5578 2.15978 55.7953 2.15872 55V11H60.1587V55ZM60.1587 9H2.15872V8C2.15978 7.20468 2.47619 6.44223 3.03857 5.87985C3.60095 5.31747 4.3634 5.00106 5.15872 5H10.1587V7C10.1587 7.26522 10.2641 7.51957 10.4516 7.70711C10.6392 7.89464 10.8935 8 11.1587 8H15.1587C15.4239 8 15.6783 7.89464 15.8658 7.70711C16.0534 7.51957 16.1587 7.26522 16.1587 7V5H22.1587V7C22.1587 7.26522 22.2641 7.51957 22.4516 7.70711C22.6392 7.89464 22.8935 8 23.1587 8H27.1587C27.4239 8 27.6783 7.89464 27.8658 7.70711C28.0534 7.51957 28.1587 7.26522 28.1587 7V5H34.1587V7C34.1587 7.26522 34.2641 7.51957 34.4516 7.70711C34.6392 7.89464 34.8935 8 35.1587 8H39.1587C39.4239 8 39.6783 7.89464 39.8658 7.70711C40.0534 7.51957 40.1587 7.26522 40.1587 7V5H46.1587V7C46.1587 7.26522 46.2641 7.51957 46.4516 7.70711C46.6392 7.89464 46.8935 8 47.1587 8H51.1587C51.4239 8 51.6783 7.89464 51.8658 7.70711C52.0534 7.51957 52.1587 7.26522 52.1587 7V5H57.1587C57.954 5.00106 58.7165 5.31747 59.2789 5.87985C59.8413 6.44223 60.1577 7.20468 60.1587 8V9Z" fill="black"/>
<path d="M44.1587 54.9999C44.1587 55.2651 44.2641 55.5194 44.4516 55.707C44.6392 55.8945 44.8935 55.9999 45.1587 55.9999H53.1587C53.4239 55.9999 53.6783 55.8945 53.8658 55.707C54.0534 55.5194 54.1587 55.2651 54.1587 54.9999C54.1587 54.7347 54.0534 54.4803 53.8658 54.2928C53.6783 54.1052 53.4239 53.9999 53.1587 53.9999H45.1587C44.8935 53.9999 44.6392 54.1052 44.4516 54.2928C44.2641 54.4803 44.1587 54.7347 44.1587 54.9999Z" fill="black"/>
<path d="M56.1587 55.9999H57.1587C57.4239 55.9999 57.6783 55.8945 57.8658 55.707C58.0533 55.5194 58.1587 55.2651 58.1587 54.9999C58.1587 54.7347 58.0533 54.4803 57.8658 54.2928C57.6783 54.1052 57.4239 53.9999 57.1587 53.9999H56.1587C55.8935 53.9999 55.6391 54.1052 55.4516 54.2928C55.264 54.4803 55.1587 54.7347 55.1587 54.9999C55.1587 55.2651 55.264 55.5194 55.4516 55.707C55.6391 55.8945 55.8935 55.9999 56.1587 55.9999Z" fill="black"/>
<path d="M38.1588 47.9999H41.1588C41.424 47.9999 41.6784 47.8945 41.8659 47.707C42.0534 47.5194 42.1588 47.2651 42.1588 46.9999C42.1588 46.7347 42.0534 46.4803 41.8659 46.2928C41.6784 46.1052 41.424 45.9999 41.1588 45.9999H39.1588V43.9999H40.1588C40.424 43.9999 40.6784 43.8945 40.8659 43.707C41.0534 43.5194 41.1588 43.2651 41.1588 42.9999C41.1588 42.7347 41.0534 42.4803 40.8659 42.2928C40.6784 42.1052 40.424 41.9999 40.1588 41.9999H39.1588V39.9999H41.1588C41.424 39.9999 41.6784 39.8945 41.8659 39.707C42.0534 39.5194 42.1588 39.2651 42.1588 38.9999C42.1588 38.7347 42.0534 38.4803 41.8659 38.2928C41.6784 38.1052 41.424 37.9999 41.1588 37.9999H38.1588C37.8936 37.9999 37.6392 38.1052 37.4517 38.2928C37.2641 38.4803 37.1588 38.7347 37.1588 38.9999V46.9999C37.1588 47.2651 37.2641 47.5194 37.4517 47.707C37.6392 47.8945 37.8936 47.9999 38.1588 47.9999Z" fill="black"/>
<path d="M22.1588 47.9999H25.1588C25.424 47.9999 25.6784 47.8945 25.8659 47.707C26.0534 47.5194 26.1588 47.2651 26.1588 46.9999C26.1588 46.7347 26.0534 46.4803 25.8659 46.2928C25.6784 46.1052 25.424 45.9999 25.1588 45.9999H23.1588V38.9999C23.1588 38.7347 23.0534 38.4803 22.8659 38.2928C22.6784 38.1052 22.424 37.9999 22.1588 37.9999C21.8936 37.9999 21.6392 38.1052 21.4517 38.2928C21.2641 38.4803 21.1588 38.7347 21.1588 38.9999V46.9999C21.1588 47.2651 21.2641 47.5194 21.4517 47.707C21.6392 47.8945 21.8936 47.9999 22.1588 47.9999Z" fill="black"/>
<path d="M28.1586 47.9999C28.4239 47.9999 28.6782 47.8945 28.8658 47.707C29.0533 47.5194 29.1586 47.2651 29.1586 46.9999V38.9999C29.1586 38.7347 29.0533 38.4803 28.8658 38.2928C28.6782 38.1052 28.4239 37.9999 28.1586 37.9999C27.8934 37.9999 27.6391 38.1052 27.4515 38.2928C27.264 38.4803 27.1586 38.7347 27.1586 38.9999V46.9999C27.1586 47.2651 27.264 47.5194 27.4515 47.707C27.6391 47.8945 27.8934 47.9999 28.1586 47.9999Z" fill="black"/>
<path d="M32.1885 47.2424C32.2426 47.4587 32.3675 47.6508 32.5432 47.788C32.719 47.9252 32.9356 47.9998 33.1586 47.9998C33.3816 47.9998 33.5982 47.9252 33.774 47.788C33.9498 47.6508 34.0746 47.4587 34.1288 47.2424L36.1288 39.2424C36.1909 38.9858 36.1492 38.7151 36.0125 38.4892C35.8759 38.2634 35.6555 38.1007 35.3994 38.0367C35.1433 37.9726 34.8723 38.0125 34.6454 38.1475C34.4186 38.2825 34.2544 38.5017 34.1885 38.7574L33.1586 42.8767L32.1288 38.7574C32.0977 38.6292 32.0415 38.5084 31.9636 38.4019C31.8856 38.2955 31.7874 38.2056 31.6745 38.1373C31.5616 38.069 31.4363 38.0237 31.3059 38.0041C31.1754 37.9844 31.0424 37.9908 30.9144 38.0228C30.7864 38.0548 30.666 38.1118 30.5601 38.1905C30.4543 38.2692 30.3651 38.3681 30.2976 38.4815C30.2301 38.5948 30.1857 38.7204 30.167 38.851C30.1483 38.9816 30.1556 39.1146 30.1885 39.2424L32.1885 47.2424Z" fill="black"/>
<path d="M39.1588 19.0001H24.1588C23.3635 19.0011 22.601 19.3175 22.0387 19.8799C21.4763 20.4423 21.1599 21.2047 21.1588 22.0001V34.0001C21.1599 34.7954 21.4763 35.5578 22.0387 36.1202C22.601 36.6826 23.3635 36.999 24.1588 37.0001H39.1588C39.9541 36.999 40.7166 36.6826 41.279 36.1202C41.8413 35.5578 42.1578 34.7954 42.1588 34.0001V22.0001C42.1578 21.2047 41.8413 20.4423 41.279 19.8799C40.7166 19.3175 39.9541 19.0011 39.1588 19.0001ZM40.1588 34.0001C40.1584 34.2652 40.053 34.5193 39.8655 34.7068C39.6781 34.8942 39.4239 34.9997 39.1588 35.0001H24.1588C23.8937 34.9997 23.6396 34.8942 23.4521 34.7068C23.2647 34.5193 23.1592 34.2652 23.1588 34.0001V22.0001C23.1592 21.735 23.2647 21.4808 23.4521 21.2934C23.6396 21.1059 23.8937 21.0004 24.1588 21.0001H39.1588C39.4239 21.0004 39.6781 21.1059 39.8655 21.2934C40.053 21.4808 40.1584 21.735 40.1588 22.0001V34.0001Z" fill="black"/>
<path d="M36.4861 27.1087L28.6111 23.1087C28.4587 23.0313 28.289 22.9943 28.1183 23.0012C27.9475 23.0081 27.7813 23.0587 27.6357 23.1481C27.49 23.2375 27.3696 23.3627 27.2861 23.5118C27.2026 23.661 27.1587 23.829 27.1586 23.9999V31.9999C27.1585 32.1709 27.2022 32.3391 27.2857 32.4884C27.3691 32.6376 27.4895 32.763 27.6352 32.8524C27.781 32.9419 27.9473 32.9924 28.1181 32.9992C28.289 33.006 28.4588 32.9688 28.6111 32.8912L36.4861 28.8912C36.6509 28.8077 36.7892 28.6802 36.8859 28.5229C36.9825 28.3656 37.0337 28.1846 37.0337 27.9999C37.0337 27.8153 36.9825 27.6342 36.8859 27.4769C36.7892 27.3196 36.6509 27.1921 36.4861 27.1087ZM29.1586 30.3699V25.6299L33.8249 27.9999L29.1586 30.3699Z" fill="black"/>
</svg>
